<?xml version="1.0" encoding="us-ascii" standalone="no"?><svg xmlns="http://www.w3.org/2000/svg" xmlns:xlink="http://www.w3.org/1999/xlink" contentStyleType="text/css" height="718px" preserveAspectRatio="none" style="width:564px;height:718px;background:#FFFFFF;" version="1.1" viewBox="0 0 564 718" width="564px" zoomAndPan="magnify"><defs/><g><text fill="#000000" font-family="sans-serif" font-size="14" font-weight="bold" lengthAdjust="spacing" textLength="200" x="181" y="31.0439">&#24207;&#21015;&#22270; 1/7: &#24212;&#29992;&#31243;&#24207;&#21021;&#22987;&#21270;&#27969;&#31243;</text><rect fill="#FFFFFF" height="461.5615" style="stroke:#181818;stroke-width:1.0;" width="10" x="93.5" y="156.6289"/><rect fill="#FFFFFF" height="31.7544" style="stroke:#181818;stroke-width:1.0;" width="10" x="230.5" y="188.3833"/><rect fill="#FFFFFF" height="31.7544" style="stroke:#181818;stroke-width:1.0;" width="10" x="230.5" y="586.436"/><rect fill="#FFFFFF" height="76.5088" style="stroke:#181818;stroke-width:1.0;" width="10" x="381" y="251.8921"/><rect fill="#FFFFFF" height="14" style="stroke:#181818;stroke-width:1.0;" width="10" x="505.5" y="360.1553"/><line style="stroke:#181818;stroke-width:0.5;stroke-dasharray:5.0,5.0;" x1="21" x2="21" y1="122.8745" y2="636.1904"/><line style="stroke:#181818;stroke-width:0.5;stroke-dasharray:5.0,5.0;" x1="98" x2="98" y1="122.8745" y2="636.1904"/><line style="stroke:#181818;stroke-width:0.5;stroke-dasharray:5.0,5.0;" x1="235" x2="235" y1="122.8745" y2="636.1904"/><line style="stroke:#181818;stroke-width:0.5;stroke-dasharray:5.0,5.0;" x1="386" x2="386" y1="122.8745" y2="636.1904"/><line style="stroke:#181818;stroke-width:0.5;stroke-dasharray:5.0,5.0;" x1="510" x2="510" y1="122.8745" y2="636.1904"/><text fill="#000000" font-family="sans-serif" font-size="13" lengthAdjust="spacing" textLength="26" x="5" y="120.0181">&#29992;&#25143;</text><ellipse cx="21" cy="53.6201" fill="#E2E2F0" rx="8" ry="8" style="stroke:#181818;stroke-width:0.5;"/><path d="M21,61.6201 L21,88.6201 M8,69.6201 L34,69.6201 M21,88.6201 L8,103.6201 M21,88.6201 L34,103.6201 " fill="none" style="stroke:#181818;stroke-width:0.5;"/><text fill="#000000" font-family="sans-serif" font-size="13" lengthAdjust="spacing" textLength="26" x="5" y="650.0884">&#29992;&#25143;</text><ellipse cx="21" cy="661.4448" fill="#E2E2F0" rx="8" ry="8" style="stroke:#181818;stroke-width:0.5;"/><path d="M21,669.4448 L21,696.4448 M8,677.4448 L34,677.4448 M21,696.4448 L8,711.4448 M21,696.4448 L34,711.4448 " fill="none" style="stroke:#181818;stroke-width:0.5;"/><rect fill="#E2E2F0" height="31.7544" rx="10" ry="10" style="stroke:#181818;stroke-width:0.5;" width="103" x="47" y="90.1201"/><text fill="#000000" font-family="sans-serif" font-size="13" lengthAdjust="spacing" textLength="89" x="54" y="112.0181">SerialAppClass</text><rect fill="#E2E2F0" height="31.7544" rx="10" ry="10" style="stroke:#181818;stroke-width:0.5;" width="103" x="47" y="635.1904"/><text fill="#000000" font-family="sans-serif" font-size="13" lengthAdjust="spacing" textLength="89" x="54" y="657.0884">SerialAppClass</text><rect fill="#E2E2F0" height="31.7544" rx="10" ry="10" style="stroke:#181818;stroke-width:0.5;" width="147" x="162" y="90.1201"/><text fill="#000000" font-family="sans-serif" font-size="13" lengthAdjust="spacing" textLength="133" x="169" y="112.0181">Ui_Serial_MainWindow</text><rect fill="#E2E2F0" height="31.7544" rx="10" ry="10" style="stroke:#181818;stroke-width:0.5;" width="147" x="162" y="635.1904"/><text fill="#000000" font-family="sans-serif" font-size="13" lengthAdjust="spacing" textLength="133" x="169" y="657.0884">Ui_Serial_MainWindow</text><rect fill="#E2E2F0" height="31.7544" rx="10" ry="10" style="stroke:#181818;stroke-width:0.5;" width="134" x="319" y="90.1201"/><text fill="#000000" font-family="sans-serif" font-size="13" lengthAdjust="spacing" textLength="120" x="326" y="112.0181">JSONConfigManager</text><rect fill="#E2E2F0" height="31.7544" rx="10" ry="10" style="stroke:#181818;stroke-width:0.5;" width="134" x="319" y="635.1904"/><text fill="#000000" font-family="sans-serif" font-size="13" lengthAdjust="spacing" textLength="120" x="326" y="657.0884">JSONConfigManager</text><rect fill="#E2E2F0" height="31.7544" rx="10" ry="10" style="stroke:#181818;stroke-width:0.5;" width="95" x="463" y="90.1201"/><text fill="#000000" font-family="sans-serif" font-size="13" lengthAdjust="spacing" textLength="81" x="470" y="112.0181">SerialProcess</text><rect fill="#E2E2F0" height="31.7544" rx="10" ry="10" style="stroke:#181818;stroke-width:0.5;" width="95" x="463" y="635.1904"/><text fill="#000000" font-family="sans-serif" font-size="13" lengthAdjust="spacing" textLength="81" x="470" y="657.0884">SerialProcess</text><rect fill="#FFFFFF" height="461.5615" style="stroke:#181818;stroke-width:1.0;" width="10" x="93.5" y="156.6289"/><rect fill="#FFFFFF" height="31.7544" style="stroke:#181818;stroke-width:1.0;" width="10" x="230.5" y="188.3833"/><rect fill="#FFFFFF" height="31.7544" style="stroke:#181818;stroke-width:1.0;" width="10" x="230.5" y="586.436"/><rect fill="#FFFFFF" height="76.5088" style="stroke:#181818;stroke-width:1.0;" width="10" x="381" y="251.8921"/><rect fill="#FFFFFF" height="14" style="stroke:#181818;stroke-width:1.0;" width="10" x="505.5" y="360.1553"/><polygon fill="#181818" points="81.5,152.6289,91.5,156.6289,81.5,160.6289,85.5,156.6289" style="stroke:#181818;stroke-width:1.0;"/><line style="stroke:#181818;stroke-width:2.0;" x1="21" x2="87.5" y1="156.6289" y2="156.6289"/><text fill="#000000" font-family="sans-serif" font-size="13" lengthAdjust="spacing" textLength="52" x="28" y="151.7725">&#21551;&#21160;&#24212;&#29992;</text><polygon fill="#181818" points="218.5,184.3833,228.5,188.3833,218.5,192.3833,222.5,188.3833" style="stroke:#181818;stroke-width:1.0;"/><line style="stroke:#181818;stroke-width:2.0;" x1="103.5" x2="224.5" y1="188.3833" y2="188.3833"/><text fill="#000000" font-family="sans-serif" font-size="13" lengthAdjust="spacing" textLength="52" x="110.5" y="183.5269">setupUi()</text><polygon fill="#181818" points="114.5,216.1377,104.5,220.1377,114.5,224.1377,110.5,220.1377" style="stroke:#181818;stroke-width:1.0;"/><line style="stroke:#181818;stroke-width:2.0;stroke-dasharray:2.0,2.0;" x1="108.5" x2="234.5" y1="220.1377" y2="220.1377"/><text fill="#000000" font-family="sans-serif" font-size="13" lengthAdjust="spacing" textLength="64" x="120.5" y="215.2813">&#21019;&#24314;UI&#25511;&#20214;</text><polygon fill="#181818" points="369,247.8921,379,251.8921,369,255.8921,373,251.8921" style="stroke:#181818;stroke-width:1.0;"/><line style="stroke:#181818;stroke-width:2.0;" x1="103.5" x2="375" y1="251.8921" y2="251.8921"/><text fill="#000000" font-family="sans-serif" font-size="13" lengthAdjust="spacing" textLength="134" x="110.5" y="247.0356">load_or_create_config()</text><line style="stroke:#181818;stroke-width:2.0;" x1="391" x2="433" y1="283.6465" y2="283.6465"/><line style="stroke:#181818;stroke-width:2.0;" x1="433" x2="433" y1="283.6465" y2="296.6465"/><line style="stroke:#181818;stroke-width:2.0;" x1="392" x2="433" y1="296.6465" y2="296.6465"/><polygon fill="#181818" points="402,292.6465,392,296.6465,402,300.6465,398,296.6465" style="stroke:#181818;stroke-width:1.0;"/><text fill="#000000" font-family="sans-serif" font-size="13" lengthAdjust="spacing" textLength="92" x="398" y="278.79">&#35835;&#21462; config.json</text><polygon fill="#181818" points="114.5,324.4009,104.5,328.4009,114.5,332.4009,110.5,328.4009" style="stroke:#181818;stroke-width:1.0;"/><line style="stroke:#181818;stroke-width:2.0;stroke-dasharray:2.0,2.0;" x1="108.5" x2="385" y1="328.4009" y2="328.4009"/><text fill="#000000" font-family="sans-serif" font-size="13" lengthAdjust="spacing" textLength="52" x="120.5" y="323.5444">&#36820;&#22238;&#37197;&#32622;</text><polygon fill="#181818" points="493.5,356.1553,503.5,360.1553,493.5,364.1553,497.5,360.1553" style="stroke:#181818;stroke-width:1.0;"/><line style="stroke:#181818;stroke-width:2.0;" x1="103.5" x2="499.5" y1="360.1553" y2="360.1553"/><text fill="#000000" font-family="sans-serif" font-size="13" lengthAdjust="spacing" textLength="52" x="110.5" y="355.2988">&#21019;&#24314;&#23454;&#20363;</text><polygon fill="#181818" points="114.5,370.1553,104.5,374.1553,114.5,378.1553,110.5,374.1553" style="stroke:#181818;stroke-width:1.0;"/><line style="stroke:#181818;stroke-width:2.0;stroke-dasharray:2.0,2.0;" x1="108.5" x2="509.5" y1="374.1553" y2="374.1553"/><line style="stroke:#181818;stroke-width:2.0;" x1="103.5" x2="145.5" y1="429.0413" y2="429.0413"/><line style="stroke:#181818;stroke-width:2.0;" x1="145.5" x2="145.5" y1="429.0413" y2="442.0413"/><line style="stroke:#181818;stroke-width:2.0;" x1="104.5" x2="145.5" y1="442.0413" y2="442.0413"/><polygon fill="#181818" points="114.5,438.0413,104.5,442.0413,114.5,446.0413,110.5,442.0413" style="stroke:#181818;stroke-width:1.0;"/><text fill="#000000" font-family="sans-serif" font-size="13" lengthAdjust="spacing" textLength="102" x="110.5" y="424.1848">connect_signals()</text><path d="M224,397.1553 L224,458.1553 A10,10 0 0 0 234,468.1553 L326,468.1553 A10,10 0 0 0 336,458.1553 L336,397.1553 L326,387.1553 L234,387.1553 A10,10 0 0 0 224,397.1553 " fill="#FEFFDD" style="stroke:#181818;stroke-width:0.5;"/><path d="M326,387.1553 L326,392.1553 A5,5 0 0 0 331,397.1553 L336,397.1553 L326,387.1553 " fill="#FEFFDD" style="stroke:#181818;stroke-width:0.5;"/><text fill="#000000" font-family="sans-serif" font-size="13" lengthAdjust="spacing" textLength="91" x="230" y="407.0532">&#36830;&#25509;&#20449;&#21495;&#19982;&#27133;&#65306;</text><text fill="#000000" font-family="sans-serif" font-size="13" lengthAdjust="spacing" textLength="75" x="230" y="424.8076">&#8226; UI&#25353;&#38062;&#20107;&#20214;</text><text fill="#000000" font-family="sans-serif" font-size="13" lengthAdjust="spacing" textLength="63" x="230" y="442.562">&#8226; &#20018;&#21475;&#20449;&#21495;</text><text fill="#000000" font-family="sans-serif" font-size="13" lengthAdjust="spacing" textLength="50" x="230" y="460.3164">&#8226; &#23450;&#26102;&#22120;</text><line style="stroke:#181818;stroke-width:2.0;" x1="103.5" x2="145.5" y1="496.9272" y2="496.9272"/><line style="stroke:#181818;stroke-width:2.0;" x1="145.5" x2="145.5" y1="496.9272" y2="509.9272"/><line style="stroke:#181818;stroke-width:2.0;" x1="104.5" x2="145.5" y1="509.9272" y2="509.9272"/><polygon fill="#181818" points="114.5,505.9272,104.5,509.9272,114.5,513.9272,110.5,509.9272" style="stroke:#181818;stroke-width:1.0;"/><text fill="#000000" font-family="sans-serif" font-size="13" lengthAdjust="spacing" textLength="83" x="110.5" y="492.0708">refresh_ports()</text><path d="M205,491.6729 L205,498.6729 A10,10 0 0 0 215,508.6729 L320,508.6729 A10,10 0 0 0 330,498.6729 L330,491.6729 L320,481.6729 L215,481.6729 A10,10 0 0 0 205,491.6729 " fill="#FEFFDD" style="stroke:#181818;stroke-width:0.5;"/><path d="M320,481.6729 L320,486.6729 A5,5 0 0 0 325,491.6729 L330,491.6729 L320,481.6729 " fill="#FEFFDD" style="stroke:#181818;stroke-width:0.5;"/><text fill="#000000" font-family="sans-serif" font-size="13" lengthAdjust="spacing" textLength="104" x="211" y="501.5708">&#21047;&#26032;&#21487;&#29992;&#20018;&#21475;&#21015;&#34920;</text><line style="stroke:#181818;stroke-width:2.0;" x1="103.5" x2="145.5" y1="541.6816" y2="541.6816"/><line style="stroke:#181818;stroke-width:2.0;" x1="145.5" x2="145.5" y1="541.6816" y2="554.6816"/><line style="stroke:#181818;stroke-width:2.0;" x1="104.5" x2="145.5" y1="554.6816" y2="554.6816"/><polygon fill="#181818" points="114.5,550.6816,104.5,554.6816,114.5,558.6816,110.5,554.6816" style="stroke:#181818;stroke-width:1.0;"/><text fill="#000000" font-family="sans-serif" font-size="13" lengthAdjust="spacing" textLength="113" x="110.5" y="536.8252">load_last_settings()</text><path d="M235,536.4272 L235,543.4272 A10,10 0 0 0 245,553.4272 L363,553.4272 A10,10 0 0 0 373,543.4272 L373,536.4272 L363,526.4272 L245,526.4272 A10,10 0 0 0 235,536.4272 " fill="#FEFFDD" style="stroke:#181818;stroke-width:0.5;"/><path d="M363,526.4272 L363,531.4272 A5,5 0 0 0 368,536.4272 L373,536.4272 L363,526.4272 " fill="#FEFFDD" style="stroke:#181818;stroke-width:0.5;"/><text fill="#000000" font-family="sans-serif" font-size="13" lengthAdjust="spacing" textLength="117" x="241" y="546.3252">&#21152;&#36733;&#19978;&#27425;&#20445;&#23384;&#30340;&#35774;&#32622;</text><polygon fill="#181818" points="218.5,582.436,228.5,586.436,218.5,590.436,222.5,586.436" style="stroke:#181818;stroke-width:1.0;"/><line style="stroke:#181818;stroke-width:2.0;" x1="103.5" x2="224.5" y1="586.436" y2="586.436"/><text fill="#000000" font-family="sans-serif" font-size="13" lengthAdjust="spacing" textLength="52" x="110.5" y="581.5796">&#26356;&#26032;&#30028;&#38754;</text><polygon fill="#181818" points="32,614.1904,22,618.1904,32,622.1904,28,618.1904" style="stroke:#181818;stroke-width:1.0;"/><line style="stroke:#181818;stroke-width:2.0;stroke-dasharray:2.0,2.0;" x1="26" x2="234.5" y1="618.1904" y2="618.1904"/><text fill="#000000" font-family="sans-serif" font-size="13" lengthAdjust="spacing" textLength="78" x="38" y="613.334">&#26174;&#31034;&#24212;&#29992;&#30028;&#38754;</text><!--SRC=[RPH1Rn915CVlyoacdFHGjVLWqeD99J5YGZMf6-DfCra66DdEuCnW4q-QQ58BWZ58AmGYLGC71MEq9I3qkvYTXPxy2ixkGBkentdlz_xpVs_UhYJInL0DAsftNpKcSFNojNLzh4whtMct6CQRgbDKfPh_uvcE021oXEOHHzjGu4S5J1symJdRkPSbJevY8U1Q1E6iG5CEunHpk7ObahY1d5mcpCQPopZSoHA98_cRZCfDj8rXB4aSpWHBI_W0tS8a5e5IE8qAhWpOBV84mzMh0217QZbBw0kHW37TXxzx70EwG1A7v16LS2EV3tDRc1FawbFSHK8iCrOYH2nY6yfE8aBl4vfYEyjWdD4qoOJmxQqxc-QOH1HbC5ycZL3avhkSEJYu68HsLwu7plJqN_VLNjUyGT0EUOma3b801CurPYNMzV1b8M-H2nVF4Ii1jEsLCvtTXXeDhOHVxdYZ8v32KN0XPVokGvUXbCsuxN2i2Ti9mr5n0u9vkv7AMN-aAZLeAYuz58oUGGidivEgQhHENxoQZdjH7tFDXHSpbOLnrMjva-Av0PC5yocUQKVrviX2BynhNnGxqXOaGv4hT4kKQPIJJ5O2gAsr_F8dxwIjAiVUeEntnhz_rdNyrzD3FIQ_zFBqJSyR5eC1cg0t-AOg7qp1FAHwTN__IBth0anJC91Vji1nccEHjVECosK3GQ_7VkshglJrOnjf_I7EsjrbXV1rz9BgDh2KX6R-aTbxFnkFlS6U_xdjdJJLbuDf_VciDma67jqQl_5TNpTzMpfj7lvlSO95rDJ1PFfnEFyB6FQlxOaSWyNy0m00]--></g></svg>