<?xml version="1.0" encoding="us-ascii" standalone="no"?><svg xmlns="http://www.w3.org/2000/svg" xmlns:xlink="http://www.w3.org/1999/xlink" contentStyleType="text/css" height="951px" preserveAspectRatio="none" style="width:678px;height:951px;background:#FFFFFF;" version="1.1" viewBox="0 0 678 951" width="678px" zoomAndPan="magnify"><defs/><g><text fill="#000000" font-family="sans-serif" font-size="14" font-weight="bold" lengthAdjust="spacing" textLength="158" x="261.25" y="31.0439">&#24207;&#21015;&#22270; 2/7: &#25171;&#24320;&#20018;&#21475;&#27969;&#31243;</text><rect fill="#FFFFFF" height="31.7544" style="stroke:#181818;stroke-width:1.0;" width="10" x="169" y="156.6289"/><rect fill="#FFFFFF" height="63.5088" style="stroke:#181818;stroke-width:1.0;" width="10" x="169" y="633.6992"/><rect fill="#FFFFFF" height="31.7544" style="stroke:#181818;stroke-width:1.0;" width="10" x="169" y="812.2256"/><rect fill="#FFFFFF" height="670.5967" style="stroke:#181818;stroke-width:1.0;" width="10" x="343" y="188.3833"/><rect fill="#FFFFFF" height="201.2808" style="stroke:#181818;stroke-width:1.0;" width="10" x="485" y="400.6641"/><rect fill="#FFFFFF" height="93.0176" style="stroke:#181818;stroke-width:1.0;" width="10" x="616" y="432.4185"/><rect fill="none" height="372.8071" rx="10" ry="10" style="stroke:#000000;stroke-width:1.5;" width="661.5" x="10" y="479.1729"/><line style="stroke:#181818;stroke-width:0.5;stroke-dasharray:5.0,5.0;" x1="36" x2="36" y1="122.8745" y2="868.98"/><line style="stroke:#181818;stroke-width:0.5;stroke-dasharray:5.0,5.0;" x1="173.5" x2="173.5" y1="122.8745" y2="868.98"/><line style="stroke:#181818;stroke-width:0.5;stroke-dasharray:5.0,5.0;" x1="347.5" x2="347.5" y1="122.8745" y2="868.98"/><line style="stroke:#181818;stroke-width:0.5;stroke-dasharray:5.0,5.0;" x1="489.5" x2="489.5" y1="122.8745" y2="868.98"/><line style="stroke:#181818;stroke-width:0.5;stroke-dasharray:5.0,5.0;" x1="620.5" x2="620.5" y1="122.8745" y2="868.98"/><text fill="#000000" font-family="sans-serif" font-size="13" lengthAdjust="spacing" textLength="26" x="20" y="120.0181">&#29992;&#25143;</text><ellipse cx="36" cy="53.6201" fill="#E2E2F0" rx="8" ry="8" style="stroke:#181818;stroke-width:0.5;"/><path d="M36,61.6201 L36,88.6201 M23,69.6201 L49,69.6201 M36,88.6201 L23,103.6201 M36,88.6201 L49,103.6201 " fill="none" style="stroke:#181818;stroke-width:0.5;"/><text fill="#000000" font-family="sans-serif" font-size="13" lengthAdjust="spacing" textLength="26" x="20" y="882.8779">&#29992;&#25143;</text><ellipse cx="36" cy="894.2344" fill="#E2E2F0" rx="8" ry="8" style="stroke:#181818;stroke-width:0.5;"/><path d="M36,902.2344 L36,929.2344 M23,910.2344 L49,910.2344 M36,929.2344 L23,944.2344 M36,929.2344 L49,944.2344 " fill="none" style="stroke:#181818;stroke-width:0.5;"/><rect fill="#E2E2F0" height="31.7544" rx="10" ry="10" style="stroke:#181818;stroke-width:0.5;" width="147" x="100.5" y="90.1201"/><text fill="#000000" font-family="sans-serif" font-size="13" lengthAdjust="spacing" textLength="133" x="107.5" y="112.0181">Ui_Serial_MainWindow</text><rect fill="#E2E2F0" height="31.7544" rx="10" ry="10" style="stroke:#181818;stroke-width:0.5;" width="147" x="100.5" y="867.98"/><text fill="#000000" font-family="sans-serif" font-size="13" lengthAdjust="spacing" textLength="133" x="107.5" y="889.8779">Ui_Serial_MainWindow</text><rect fill="#E2E2F0" height="31.7544" rx="10" ry="10" style="stroke:#181818;stroke-width:0.5;" width="103" x="296.5" y="90.1201"/><text fill="#000000" font-family="sans-serif" font-size="13" lengthAdjust="spacing" textLength="89" x="303.5" y="112.0181">SerialAppClass</text><rect fill="#E2E2F0" height="31.7544" rx="10" ry="10" style="stroke:#181818;stroke-width:0.5;" width="103" x="296.5" y="867.98"/><text fill="#000000" font-family="sans-serif" font-size="13" lengthAdjust="spacing" textLength="89" x="303.5" y="889.8779">SerialAppClass</text><rect fill="#E2E2F0" height="31.7544" rx="10" ry="10" style="stroke:#181818;stroke-width:0.5;" width="95" x="442.5" y="90.1201"/><text fill="#000000" font-family="sans-serif" font-size="13" lengthAdjust="spacing" textLength="81" x="449.5" y="112.0181">SerialProcess</text><rect fill="#E2E2F0" height="31.7544" rx="10" ry="10" style="stroke:#181818;stroke-width:0.5;" width="95" x="442.5" y="867.98"/><text fill="#000000" font-family="sans-serif" font-size="13" lengthAdjust="spacing" textLength="81" x="449.5" y="889.8779">SerialProcess</text><rect fill="#E2E2F0" height="31.7544" rx="10" ry="10" style="stroke:#181818;stroke-width:0.5;" width="81" x="580.5" y="90.1201"/><text fill="#000000" font-family="sans-serif" font-size="13" lengthAdjust="spacing" textLength="67" x="587.5" y="112.0181">QSerialPort</text><rect fill="#E2E2F0" height="31.7544" rx="10" ry="10" style="stroke:#181818;stroke-width:0.5;" width="81" x="580.5" y="867.98"/><text fill="#000000" font-family="sans-serif" font-size="13" lengthAdjust="spacing" textLength="67" x="587.5" y="889.8779">QSerialPort</text><rect fill="#FFFFFF" height="31.7544" style="stroke:#181818;stroke-width:1.0;" width="10" x="169" y="156.6289"/><rect fill="#FFFFFF" height="63.5088" style="stroke:#181818;stroke-width:1.0;" width="10" x="169" y="633.6992"/><rect fill="#FFFFFF" height="31.7544" style="stroke:#181818;stroke-width:1.0;" width="10" x="169" y="812.2256"/><rect fill="#FFFFFF" height="670.5967" style="stroke:#181818;stroke-width:1.0;" width="10" x="343" y="188.3833"/><rect fill="#FFFFFF" height="201.2808" style="stroke:#181818;stroke-width:1.0;" width="10" x="485" y="400.6641"/><rect fill="#FFFFFF" height="93.0176" style="stroke:#181818;stroke-width:1.0;" width="10" x="616" y="432.4185"/><polygon fill="#181818" points="157,152.6289,167,156.6289,157,160.6289,161,156.6289" style="stroke:#181818;stroke-width:1.0;"/><line style="stroke:#181818;stroke-width:2.0;" x1="36" x2="163" y1="156.6289" y2="156.6289"/><text fill="#000000" font-family="sans-serif" font-size="13" lengthAdjust="spacing" textLength="114" x="43" y="151.7725">&#28857;&#20987;"&#25171;&#24320;&#20018;&#21475;"&#25353;&#38062;</text><polygon fill="#181818" points="331,184.3833,341,188.3833,331,192.3833,335,188.3833" style="stroke:#181818;stroke-width:1.0;"/><line style="stroke:#181818;stroke-width:2.0;" x1="174" x2="337" y1="188.3833" y2="188.3833"/><text fill="#000000" font-family="sans-serif" font-size="13" lengthAdjust="spacing" textLength="98" x="181" y="183.5269">open_btn.clicked</text><line style="stroke:#181818;stroke-width:2.0;" x1="353" x2="395" y1="220.1377" y2="220.1377"/><line style="stroke:#181818;stroke-width:2.0;" x1="395" x2="395" y1="220.1377" y2="233.1377"/><line style="stroke:#181818;stroke-width:2.0;" x1="354" x2="395" y1="233.1377" y2="233.1377"/><polygon fill="#181818" points="364,229.1377,354,233.1377,364,237.1377,360,233.1377" style="stroke:#181818;stroke-width:1.0;"/><text fill="#000000" font-family="sans-serif" font-size="13" lengthAdjust="spacing" textLength="110" x="360" y="215.2813">toggle_serial_port()</text><line style="stroke:#181818;stroke-width:2.0;" x1="353" x2="395" y1="264.8921" y2="264.8921"/><line style="stroke:#181818;stroke-width:2.0;" x1="395" x2="395" y1="264.8921" y2="277.8921"/><line style="stroke:#181818;stroke-width:2.0;" x1="354" x2="395" y1="277.8921" y2="277.8921"/><polygon fill="#181818" points="364,273.8921,354,277.8921,364,281.8921,360,277.8921" style="stroke:#181818;stroke-width:1.0;"/><text fill="#000000" font-family="sans-serif" font-size="13" lengthAdjust="spacing" textLength="103" x="360" y="260.0356">open_serial_port()</text><line style="stroke:#181818;stroke-width:2.0;" x1="353" x2="395" y1="332.7781" y2="332.7781"/><line style="stroke:#181818;stroke-width:2.0;" x1="395" x2="395" y1="332.7781" y2="345.7781"/><line style="stroke:#181818;stroke-width:2.0;" x1="354" x2="395" y1="345.7781" y2="345.7781"/><polygon fill="#181818" points="364,341.7781,354,345.7781,364,349.7781,360,345.7781" style="stroke:#181818;stroke-width:1.0;"/><text fill="#000000" font-family="sans-serif" font-size="13" lengthAdjust="spacing" textLength="78" x="360" y="327.9216">&#33719;&#21462;&#20018;&#21475;&#21442;&#25968;</text><path d="M450,300.8921 L450,361.8921 A10,10 0 0 0 460,371.8921 L597,371.8921 A10,10 0 0 0 607,361.8921 L607,300.8921 L597,290.8921 L460,290.8921 A10,10 0 0 0 450,300.8921 " fill="#FEFFDD" style="stroke:#181818;stroke-width:0.5;"/><path d="M597,290.8921 L597,295.8921 A5,5 0 0 0 602,300.8921 L607,300.8921 L597,290.8921 " fill="#FEFFDD" style="stroke:#181818;stroke-width:0.5;"/><text fill="#000000" font-family="sans-serif" font-size="13" lengthAdjust="spacing" textLength="50" x="456" y="310.79">&#8226; &#31471;&#21475;&#21517;</text><text fill="#000000" font-family="sans-serif" font-size="13" lengthAdjust="spacing" textLength="50" x="456" y="328.5444">&#8226; &#27874;&#29305;&#29575;</text><text fill="#000000" font-family="sans-serif" font-size="13" lengthAdjust="spacing" textLength="136" x="456" y="346.2988">&#8226; &#25968;&#25454;&#20301;/&#26657;&#39564;&#20301;/&#20572;&#27490;&#20301;</text><text fill="#000000" font-family="sans-serif" font-size="13" lengthAdjust="spacing" textLength="50" x="456" y="364.0532">&#8226; &#27969;&#25511;&#21046;</text><polygon fill="#181818" points="473,396.6641,483,400.6641,473,404.6641,477,400.6641" style="stroke:#181818;stroke-width:1.0;"/><line style="stroke:#181818;stroke-width:2.0;" x1="353" x2="479" y1="400.6641" y2="400.6641"/><text fill="#000000" font-family="sans-serif" font-size="13" lengthAdjust="spacing" textLength="103" x="360" y="395.8076">open_port(&#21442;&#25968;...)</text><polygon fill="#181818" points="604,428.4185,614,432.4185,604,436.4185,608,432.4185" style="stroke:#181818;stroke-width:1.0;"/><line style="stroke:#181818;stroke-width:2.0;" x1="495" x2="610" y1="432.4185" y2="432.4185"/><text fill="#000000" font-family="sans-serif" font-size="13" lengthAdjust="spacing" textLength="78" x="502" y="427.562">&#35774;&#32622;&#20018;&#21475;&#21442;&#25968;</text><polygon fill="#181818" points="604,460.1729,614,464.1729,604,468.1729,608,464.1729" style="stroke:#181818;stroke-width:1.0;"/><line style="stroke:#181818;stroke-width:2.0;" x1="495" x2="610" y1="464.1729" y2="464.1729"/><text fill="#000000" font-family="sans-serif" font-size="13" lengthAdjust="spacing" textLength="97" x="502" y="459.3164">open(ReadWrite)</text><path d="M20,479.1729 L71,479.1729 L71,488.9272 L61,498.9272 L10,498.9272 L10,489.1729 A10,10 0 0 1 20,479.1729 " fill="#EEEEEE" style="stroke:#000000;stroke-width:1.5;"/><rect fill="none" height="372.8071" rx="10" ry="10" style="stroke:#000000;stroke-width:1.5;" width="661.5" x="10" y="479.1729"/><text fill="#000000" font-family="sans-serif" font-size="13" font-weight="bold" lengthAdjust="spacing" textLength="16" x="25" y="495.0708">alt</text><text fill="#000000" font-family="sans-serif" font-size="13" font-weight="bold" lengthAdjust="spacing" textLength="60" x="86" y="496.0708">[&#25171;&#24320;&#25104;&#21151;]</text><polygon fill="#181818" points="506,521.436,496,525.436,506,529.436,502,525.436" style="stroke:#181818;stroke-width:1.0;"/><line style="stroke:#181818;stroke-width:2.0;stroke-dasharray:2.0,2.0;" x1="500" x2="620" y1="525.436" y2="525.436"/><text fill="#000000" font-family="sans-serif" font-size="13" lengthAdjust="spacing" textLength="25" x="512" y="520.5796">True</text><line style="stroke:#181818;stroke-width:2.0;" x1="495" x2="537" y1="557.1904" y2="557.1904"/><line style="stroke:#181818;stroke-width:2.0;" x1="537" x2="537" y1="557.1904" y2="570.1904"/><line style="stroke:#181818;stroke-width:2.0;" x1="496" x2="537" y1="570.1904" y2="570.1904"/><polygon fill="#181818" points="506,566.1904,496,570.1904,506,574.1904,502,570.1904" style="stroke:#181818;stroke-width:1.0;"/><text fill="#000000" font-family="sans-serif" font-size="13" lengthAdjust="spacing" textLength="86" x="502" y="552.334">is_open = True</text><polygon fill="#00AA00" points="364,597.9448,354,601.9448,364,605.9448,360,601.9448" style="stroke:#00AA00;stroke-width:1.0;"/><line style="stroke:#00AA00;stroke-width:2.0;stroke-dasharray:2.0,2.0;" x1="358" x2="489" y1="601.9448" y2="601.9448"/><text fill="#000000" font-family="sans-serif" font-size="13" lengthAdjust="spacing" textLength="101" x="370" y="597.0884">port_opened &#20449;&#21495;</text><polygon fill="#181818" points="190,629.6992,180,633.6992,190,637.6992,186,633.6992" style="stroke:#181818;stroke-width:1.0;"/><line style="stroke:#181818;stroke-width:2.0;" x1="184" x2="342" y1="633.6992" y2="633.6992"/><text fill="#000000" font-family="sans-serif" font-size="13" lengthAdjust="spacing" textLength="78" x="196" y="628.8428">&#26356;&#26032;&#25353;&#38062;&#25991;&#26412;</text><polygon fill="#181818" points="190,661.4536,180,665.4536,190,669.4536,186,665.4536" style="stroke:#181818;stroke-width:1.0;"/><line style="stroke:#181818;stroke-width:2.0;" x1="184" x2="342" y1="665.4536" y2="665.4536"/><text fill="#000000" font-family="sans-serif" font-size="13" lengthAdjust="spacing" textLength="140" x="196" y="660.5972">&#29366;&#24577;&#26639;&#26174;&#31034;"&#20018;&#21475;&#24050;&#25171;&#24320;"</text><polygon fill="#181818" points="47,693.208,37,697.208,47,701.208,43,697.208" style="stroke:#181818;stroke-width:1.0;"/><line style="stroke:#181818;stroke-width:2.0;stroke-dasharray:2.0,2.0;" x1="41" x2="173" y1="697.208" y2="697.208"/><text fill="#000000" font-family="sans-serif" font-size="13" lengthAdjust="spacing" textLength="78" x="53" y="692.3516">&#26174;&#31034;&#25104;&#21151;&#25552;&#31034;</text><line style="stroke:#000000;stroke-width:1.0;stroke-dasharray:2.0,2.0;" x1="10" x2="671.5" y1="706.208" y2="706.208"/><text fill="#000000" font-family="sans-serif" font-size="13" font-weight="bold" lengthAdjust="spacing" textLength="60" x="15" y="721.106">[&#25171;&#24320;&#22833;&#36133;]</text><polygon fill="#181818" points="501,744.7168,491,748.7168,501,752.7168,497,748.7168" style="stroke:#181818;stroke-width:1.0;"/><line style="stroke:#181818;stroke-width:2.0;stroke-dasharray:2.0,2.0;" x1="495" x2="620" y1="748.7168" y2="748.7168"/><text fill="#000000" font-family="sans-serif" font-size="13" lengthAdjust="spacing" textLength="32" x="507" y="743.8604">False</text><polygon fill="#FF0000" points="364,776.4712,354,780.4712,364,784.4712,360,780.4712" style="stroke:#FF0000;stroke-width:1.0;"/><line style="stroke:#FF0000;stroke-width:2.0;stroke-dasharray:2.0,2.0;" x1="358" x2="489" y1="780.4712" y2="780.4712"/><text fill="#000000" font-family="sans-serif" font-size="13" lengthAdjust="spacing" textLength="113" x="370" y="775.6147">error_occurred &#20449;&#21495;</text><polygon fill="#181818" points="190,808.2256,180,812.2256,190,816.2256,186,812.2256" style="stroke:#181818;stroke-width:1.0;"/><line style="stroke:#181818;stroke-width:2.0;" x1="184" x2="342" y1="812.2256" y2="812.2256"/><text fill="#000000" font-family="sans-serif" font-size="13" lengthAdjust="spacing" textLength="91" x="196" y="807.3691">&#24377;&#20986;&#38169;&#35823;&#23545;&#35805;&#26694;</text><polygon fill="#181818" points="47,839.98,37,843.98,47,847.98,43,843.98" style="stroke:#181818;stroke-width:1.0;"/><line style="stroke:#181818;stroke-width:2.0;stroke-dasharray:2.0,2.0;" x1="41" x2="173" y1="843.98" y2="843.98"/><text fill="#000000" font-family="sans-serif" font-size="13" lengthAdjust="spacing" textLength="78" x="53" y="839.1235">&#26174;&#31034;&#38169;&#35823;&#20449;&#24687;</text><!--SRC=[dPJFJnD15CVlyrTCbWiSA1KF9YIQL9963nWK2374DEFkK2OiEtLsAeadoa4A0aiKK0D6G8p47oqYK470_yKmi-M_S6PtIxUb1-EbcUdxl7dVzvqtomctCHJ7dYY-5cjdiBlhHW-Kiw_4oTJvpptXVP071N_d1G3kE75oYA49wE8dUUoOECKOdHmS8-QuWrqNTiSGHlEEPLBcO0Qxax70RMIEPuDeBxKfWvDZXEDOF4qTVWzDO6Zq4PDHbuvo-13TmSI8GHOUHNcRQtQ0FCFmsdK0aCdLSKEkAeXSQFZBEx9OCO1AuCGaEUHmE7Gt20sHp01c1DcPFaISOU9OTB8HJELo0HbYQjTh8zTjPC9O3EjdrCJDL3zbF63kHv3Q6m04CZjlAKKzq9y-4ZE_ZBZbXfoVlNXPqZsHfuXZnG4bNYKeBJsGvh2JUSoTX6ahxx45B1mdwscA1hgNMYAdsQoDCsxOVKvfQUze08AJ6yCDyUfYHNYheKZXJSkLNU1GLOYHx1W74FwPseB-bxAEBYr4U_bZovyzyXTdQlkLNRbGEZzTw98RcnUVv_LA5DRbjosrgZ471RduIHGF0NOig4jSwWXzZAG66aCXYKIYezvvI04GtPBAqywh1afd_ccfeO7B74rSIT1bsXzWP0qpDQZA3cJpw7d8ufAOUwyKm_2QEsFg1baU1v7OrGJdw_-2dtgXMWvnCxeQl5dFha4ZRSbaAfLCFgfTX6uyeB45ptzl2g_IN2rouB9UP9-UEBcsBrTtmncJgpDo_Mj0n6UeASEVEvHJ1RdXoJTd_lQn4HbOsGkTC09UJwZcrVoe6W4OMYIz9RLk5XXL0TXsSUIesFvUtV_Osj4qKjo_MJhIbaudap6tiFfGiGmrpJnZ_sEOE55FzFXY-MsrN1RbeshvdTnytjAp5Xw4QQgcB9HRUA067CGVi7wpVm40]--></g></svg>