<?xml version="1.0" encoding="us-ascii" standalone="no"?><svg xmlns="http://www.w3.org/2000/svg" xmlns:xlink="http://www.w3.org/1999/xlink" contentStyleType="text/css" height="1018px" preserveAspectRatio="none" style="width:637px;height:1018px;background:#FFFFFF;" version="1.1" viewBox="0 0 637 1018" width="637px" zoomAndPan="magnify"><defs/><g><text fill="#000000" font-family="sans-serif" font-size="14" font-weight="bold" lengthAdjust="spacing" textLength="158" x="240.75" y="31.0439">&#24207;&#21015;&#22270; 3/7: &#25509;&#25910;&#25968;&#25454;&#27969;&#31243;</text><rect fill="#FFFFFF" height="31.7544" style="stroke:#181818;stroke-width:1.0;" width="10" x="40.5" y="239.1377"/><rect fill="#FFFFFF" height="187.772" style="stroke:#181818;stroke-width:1.0;" width="10" x="156.5" y="159.6289"/><rect fill="#FFFFFF" height="578.5791" style="stroke:#181818;stroke-width:1.0;" width="10" x="307.5" y="347.4009"/><rect fill="#FFFFFF" height="31.7544" style="stroke:#181818;stroke-width:1.0;" width="10" x="479.5" y="879.2256"/><rect fill="none" height="511.8247" rx="10" ry="10" style="stroke:#000000;stroke-width:1.5;" width="389.5" x="241" y="407.1553"/><rect fill="none" height="176.5264" rx="10" ry="10" style="stroke:#000000;stroke-width:1.5;" width="201.5" x="251" y="545.9272"/><rect fill="none" height="67.2632" rx="10" ry="10" style="stroke:#000000;stroke-width:1.5;" width="176.5" x="251" y="736.4536"/><line style="stroke:#181818;stroke-width:0.5;stroke-dasharray:5.0,5.0;" x1="45" x2="45" y1="122.8745" y2="935.98"/><line style="stroke:#181818;stroke-width:0.5;stroke-dasharray:5.0,5.0;" x1="161" x2="161" y1="122.8745" y2="935.98"/><line style="stroke:#181818;stroke-width:0.5;stroke-dasharray:5.0,5.0;" x1="312" x2="312" y1="122.8745" y2="935.98"/><line style="stroke:#181818;stroke-width:0.5;stroke-dasharray:5.0,5.0;" x1="484" x2="484" y1="122.8745" y2="935.98"/><line style="stroke:#181818;stroke-width:0.5;stroke-dasharray:5.0,5.0;" x1="604.5" x2="604.5" y1="122.8745" y2="935.98"/><rect fill="#E2E2F0" height="31.7544" rx="10" ry="10" style="stroke:#181818;stroke-width:0.5;" width="81" x="5" y="90.1201"/><text fill="#000000" font-family="sans-serif" font-size="13" lengthAdjust="spacing" textLength="67" x="12" y="112.0181">QSerialPort</text><rect fill="#E2E2F0" height="31.7544" rx="10" ry="10" style="stroke:#181818;stroke-width:0.5;" width="81" x="5" y="934.98"/><text fill="#000000" font-family="sans-serif" font-size="13" lengthAdjust="spacing" textLength="67" x="12" y="956.8779">QSerialPort</text><rect fill="#E2E2F0" height="31.7544" rx="10" ry="10" style="stroke:#181818;stroke-width:0.5;" width="95" x="114" y="90.1201"/><text fill="#000000" font-family="sans-serif" font-size="13" lengthAdjust="spacing" textLength="81" x="121" y="112.0181">SerialProcess</text><rect fill="#E2E2F0" height="31.7544" rx="10" ry="10" style="stroke:#181818;stroke-width:0.5;" width="95" x="114" y="934.98"/><text fill="#000000" font-family="sans-serif" font-size="13" lengthAdjust="spacing" textLength="81" x="121" y="956.8779">SerialProcess</text><rect fill="#E2E2F0" height="31.7544" rx="10" ry="10" style="stroke:#181818;stroke-width:0.5;" width="103" x="261" y="90.1201"/><text fill="#000000" font-family="sans-serif" font-size="13" lengthAdjust="spacing" textLength="89" x="268" y="112.0181">SerialAppClass</text><rect fill="#E2E2F0" height="31.7544" rx="10" ry="10" style="stroke:#181818;stroke-width:0.5;" width="103" x="261" y="934.98"/><text fill="#000000" font-family="sans-serif" font-size="13" lengthAdjust="spacing" textLength="89" x="268" y="956.8779">SerialAppClass</text><rect fill="#E2E2F0" height="31.7544" rx="10" ry="10" style="stroke:#181818;stroke-width:0.5;" width="147" x="411" y="90.1201"/><text fill="#000000" font-family="sans-serif" font-size="13" lengthAdjust="spacing" textLength="133" x="418" y="112.0181">Ui_Serial_MainWindow</text><rect fill="#E2E2F0" height="31.7544" rx="10" ry="10" style="stroke:#181818;stroke-width:0.5;" width="147" x="411" y="934.98"/><text fill="#000000" font-family="sans-serif" font-size="13" lengthAdjust="spacing" textLength="133" x="418" y="956.8779">Ui_Serial_MainWindow</text><text fill="#000000" font-family="sans-serif" font-size="13" lengthAdjust="spacing" textLength="26" x="588.5" y="120.0181">&#29992;&#25143;</text><ellipse cx="604.5" cy="53.6201" fill="#E2E2F0" rx="8" ry="8" style="stroke:#181818;stroke-width:0.5;"/><path d="M604.5,61.6201 L604.5,88.6201 M591.5,69.6201 L617.5,69.6201 M604.5,88.6201 L591.5,103.6201 M604.5,88.6201 L617.5,103.6201 " fill="none" style="stroke:#181818;stroke-width:0.5;"/><text fill="#000000" font-family="sans-serif" font-size="13" lengthAdjust="spacing" textLength="26" x="588.5" y="949.8779">&#29992;&#25143;</text><ellipse cx="604.5" cy="961.2344" fill="#E2E2F0" rx="8" ry="8" style="stroke:#181818;stroke-width:0.5;"/><path d="M604.5,969.2344 L604.5,996.2344 M591.5,977.2344 L617.5,977.2344 M604.5,996.2344 L591.5,1011.2344 M604.5,996.2344 L617.5,1011.2344 " fill="none" style="stroke:#181818;stroke-width:0.5;"/><rect fill="#FFFFFF" height="31.7544" style="stroke:#181818;stroke-width:1.0;" width="10" x="40.5" y="239.1377"/><rect fill="#FFFFFF" height="187.772" style="stroke:#181818;stroke-width:1.0;" width="10" x="156.5" y="159.6289"/><rect fill="#FFFFFF" height="578.5791" style="stroke:#181818;stroke-width:1.0;" width="10" x="307.5" y="347.4009"/><rect fill="#FFFFFF" height="31.7544" style="stroke:#181818;stroke-width:1.0;" width="10" x="479.5" y="879.2256"/><polygon fill="#181818" points="144.5,155.6289,154.5,159.6289,144.5,163.6289,148.5,159.6289" style="stroke:#181818;stroke-width:1.0;"/><line style="stroke:#181818;stroke-width:2.0;" x1="45.5" x2="150.5" y1="159.6289" y2="159.6289"/><text fill="#000000" font-family="sans-serif" font-size="13" lengthAdjust="spacing" textLength="92" x="52.5" y="154.7725">readyRead &#20449;&#21495;</text><path d="M171,147.8745 L171,154.8745 A10,10 0 0 0 181,164.8745 L273,164.8745 A10,10 0 0 0 283,154.8745 L283,147.8745 L273,137.8745 L181,137.8745 A10,10 0 0 0 171,147.8745 " fill="#FEFFDD" style="stroke:#181818;stroke-width:0.5;"/><path d="M273,137.8745 L273,142.8745 A5,5 0 0 0 278,147.8745 L283,147.8745 L273,137.8745 " fill="#FEFFDD" style="stroke:#181818;stroke-width:0.5;"/><text fill="#000000" font-family="sans-serif" font-size="13" lengthAdjust="spacing" textLength="91" x="177" y="157.7725">&#20018;&#21475;&#26377;&#25968;&#25454;&#21040;&#36798;</text><line style="stroke:#181818;stroke-width:2.0;" x1="166.5" x2="208.5" y1="194.3833" y2="194.3833"/><line style="stroke:#181818;stroke-width:2.0;" x1="208.5" x2="208.5" y1="194.3833" y2="207.3833"/><line style="stroke:#181818;stroke-width:2.0;" x1="167.5" x2="208.5" y1="207.3833" y2="207.3833"/><polygon fill="#181818" points="177.5,203.3833,167.5,207.3833,177.5,211.3833,173.5,207.3833" style="stroke:#181818;stroke-width:1.0;"/><text fill="#000000" font-family="sans-serif" font-size="13" lengthAdjust="spacing" textLength="65" x="173.5" y="189.5269">read_data()</text><polygon fill="#181818" points="61.5,235.1377,51.5,239.1377,61.5,243.1377,57.5,239.1377" style="stroke:#181818;stroke-width:1.0;"/><line style="stroke:#181818;stroke-width:2.0;" x1="55.5" x2="155.5" y1="239.1377" y2="239.1377"/><text fill="#000000" font-family="sans-serif" font-size="13" lengthAdjust="spacing" textLength="48" x="67.5" y="234.2813">readAll()</text><polygon fill="#181818" points="144.5,266.8921,154.5,270.8921,144.5,274.8921,148.5,270.8921" style="stroke:#181818;stroke-width:1.0;"/><line style="stroke:#181818;stroke-width:2.0;stroke-dasharray:2.0,2.0;" x1="45.5" x2="150.5" y1="270.8921" y2="270.8921"/><text fill="#000000" font-family="sans-serif" font-size="13" lengthAdjust="spacing" textLength="68" x="52.5" y="266.0356">QByteArray</text><line style="stroke:#181818;stroke-width:2.0;" x1="166.5" x2="208.5" y1="302.6465" y2="302.6465"/><line style="stroke:#181818;stroke-width:2.0;" x1="208.5" x2="208.5" y1="302.6465" y2="315.6465"/><line style="stroke:#181818;stroke-width:2.0;" x1="167.5" x2="208.5" y1="315.6465" y2="315.6465"/><polygon fill="#181818" points="177.5,311.6465,167.5,315.6465,177.5,319.6465,173.5,315.6465" style="stroke:#181818;stroke-width:1.0;"/><text fill="#000000" font-family="sans-serif" font-size="13" lengthAdjust="spacing" textLength="127" x="173.5" y="297.79">receive_count += size</text><polygon fill="#0066FF" points="295.5,343.4009,305.5,347.4009,295.5,351.4009,299.5,347.4009" style="stroke:#0066FF;stroke-width:1.0;"/><line style="stroke:#0066FF;stroke-width:2.0;stroke-dasharray:2.0,2.0;" x1="161.5" x2="301.5" y1="347.4009" y2="347.4009"/><text fill="#000000" font-family="sans-serif" font-size="13" lengthAdjust="spacing" textLength="109" x="168.5" y="342.5444">data_received &#20449;&#21495;</text><line style="stroke:#181818;stroke-width:2.0;" x1="317.5" x2="359.5" y1="379.1553" y2="379.1553"/><line style="stroke:#181818;stroke-width:2.0;" x1="359.5" x2="359.5" y1="379.1553" y2="392.1553"/><line style="stroke:#181818;stroke-width:2.0;" x1="318.5" x2="359.5" y1="392.1553" y2="392.1553"/><polygon fill="#181818" points="328.5,388.1553,318.5,392.1553,328.5,396.1553,324.5,392.1553" style="stroke:#181818;stroke-width:1.0;"/><text fill="#000000" font-family="sans-serif" font-size="13" lengthAdjust="spacing" textLength="133" x="324.5" y="374.2988">on_data_received(data)</text><path d="M251,407.1553 L302,407.1553 L302,416.9097 L292,426.9097 L241,426.9097 L241,417.1553 A10,10 0 0 1 251,407.1553 " fill="#EEEEEE" style="stroke:#000000;stroke-width:1.5;"/><rect fill="none" height="511.8247" rx="10" ry="10" style="stroke:#000000;stroke-width:1.5;" width="389.5" x="241" y="407.1553"/><text fill="#000000" font-family="sans-serif" font-size="13" font-weight="bold" lengthAdjust="spacing" textLength="16" x="256" y="423.0532">alt</text><text fill="#000000" font-family="sans-serif" font-size="13" font-weight="bold" lengthAdjust="spacing" textLength="123" x="317" y="424.0532">[&#30005;&#26426;&#25968;&#25454; "[M]:xxx"]</text><line style="stroke:#181818;stroke-width:2.0;" x1="317.5" x2="359.5" y1="453.4185" y2="453.4185"/><line style="stroke:#181818;stroke-width:2.0;" x1="359.5" x2="359.5" y1="453.4185" y2="466.4185"/><line style="stroke:#181818;stroke-width:2.0;" x1="318.5" x2="359.5" y1="466.4185" y2="466.4185"/><polygon fill="#181818" points="328.5,462.4185,318.5,466.4185,328.5,470.4185,324.5,466.4185" style="stroke:#181818;stroke-width:1.0;"/><text fill="#000000" font-family="sans-serif" font-size="13" lengthAdjust="spacing" textLength="126" x="324.5" y="448.562">motor_data_process()</text><line style="stroke:#181818;stroke-width:2.0;" x1="317.5" x2="359.5" y1="498.1729" y2="498.1729"/><line style="stroke:#181818;stroke-width:2.0;" x1="359.5" x2="359.5" y1="498.1729" y2="511.1729"/><line style="stroke:#181818;stroke-width:2.0;" x1="318.5" x2="359.5" y1="511.1729" y2="511.1729"/><polygon fill="#181818" points="328.5,507.1729,318.5,511.1729,328.5,515.1729,324.5,511.1729" style="stroke:#181818;stroke-width:1.0;"/><text fill="#000000" font-family="sans-serif" font-size="13" lengthAdjust="spacing" textLength="125" x="324.5" y="493.3164">update_speed_chart()</text><path d="M461,492.9185 L461,499.9185 A10,10 0 0 0 471,509.9185 L550,509.9185 A10,10 0 0 0 560,499.9185 L560,492.9185 L550,482.9185 L471,482.9185 A10,10 0 0 0 461,492.9185 " fill="#FEFFDD" style="stroke:#181818;stroke-width:0.5;"/><path d="M550,482.9185 L550,487.9185 A5,5 0 0 0 555,492.9185 L560,492.9185 L550,482.9185 " fill="#FEFFDD" style="stroke:#181818;stroke-width:0.5;"/><text fill="#000000" font-family="sans-serif" font-size="13" lengthAdjust="spacing" textLength="78" x="467" y="502.8164">&#26356;&#26032;&#36895;&#24230;&#22270;&#34920;</text><line style="stroke:#000000;stroke-width:1.0;stroke-dasharray:2.0,2.0;" x1="241" x2="630.5" y1="520.1729" y2="520.1729"/><text fill="#000000" font-family="sans-serif" font-size="13" font-weight="bold" lengthAdjust="spacing" textLength="86" x="246" y="535.0708">[&#26222;&#36890;&#20018;&#21475;&#25968;&#25454;]</text><path d="M261,545.9272 L312,545.9272 L312,555.6816 L302,565.6816 L251,565.6816 L251,555.9272 A10,10 0 0 1 261,545.9272 " fill="#EEEEEE" style="stroke:#000000;stroke-width:1.5;"/><rect fill="none" height="176.5264" rx="10" ry="10" style="stroke:#000000;stroke-width:1.5;" width="201.5" x="251" y="545.9272"/><text fill="#000000" font-family="sans-serif" font-size="13" font-weight="bold" lengthAdjust="spacing" textLength="16" x="266" y="561.8252">alt</text><text fill="#000000" font-family="sans-serif" font-size="13" font-weight="bold" lengthAdjust="spacing" textLength="86" x="327" y="562.8252">[&#21313;&#20845;&#36827;&#21046;&#26174;&#31034;]</text><line style="stroke:#181818;stroke-width:2.0;" x1="317.5" x2="359.5" y1="592.1904" y2="592.1904"/><line style="stroke:#181818;stroke-width:2.0;" x1="359.5" x2="359.5" y1="592.1904" y2="605.1904"/><line style="stroke:#181818;stroke-width:2.0;" x1="318.5" x2="359.5" y1="605.1904" y2="605.1904"/><polygon fill="#181818" points="328.5,601.1904,318.5,605.1904,328.5,609.1904,324.5,605.1904" style="stroke:#181818;stroke-width:1.0;"/><text fill="#000000" font-family="sans-serif" font-size="13" lengthAdjust="spacing" textLength="99" x="324.5" y="587.334">toHex().toUpper()</text><line style="stroke:#181818;stroke-width:2.0;" x1="317.5" x2="359.5" y1="636.9448" y2="636.9448"/><line style="stroke:#181818;stroke-width:2.0;" x1="359.5" x2="359.5" y1="636.9448" y2="649.9448"/><line style="stroke:#181818;stroke-width:2.0;" x1="318.5" x2="359.5" y1="649.9448" y2="649.9448"/><polygon fill="#181818" points="328.5,645.9448,318.5,649.9448,328.5,653.9448,324.5,649.9448" style="stroke:#181818;stroke-width:1.0;"/><text fill="#000000" font-family="sans-serif" font-size="13" lengthAdjust="spacing" textLength="116" x="324.5" y="632.0884">&#26684;&#24335;&#21270;&#20026; "XX XX XX"</text><line style="stroke:#000000;stroke-width:1.0;stroke-dasharray:2.0,2.0;" x1="251" x2="452.5" y1="658.9448" y2="658.9448"/><text fill="#000000" font-family="sans-serif" font-size="13" font-weight="bold" lengthAdjust="spacing" textLength="60" x="256" y="673.8428">[&#25991;&#26412;&#26174;&#31034;]</text><line style="stroke:#181818;stroke-width:2.0;" x1="317.5" x2="359.5" y1="701.4536" y2="701.4536"/><line style="stroke:#181818;stroke-width:2.0;" x1="359.5" x2="359.5" y1="701.4536" y2="714.4536"/><line style="stroke:#181818;stroke-width:2.0;" x1="318.5" x2="359.5" y1="714.4536" y2="714.4536"/><polygon fill="#181818" points="328.5,710.4536,318.5,714.4536,328.5,718.4536,324.5,714.4536" style="stroke:#181818;stroke-width:1.0;"/><text fill="#000000" font-family="sans-serif" font-size="13" lengthAdjust="spacing" textLength="79" x="324.5" y="696.5972">decode('utf-8')</text><path d="M261,736.4536 L312,736.4536 L312,746.208 L302,756.208 L251,756.208 L251,746.4536 A10,10 0 0 1 261,736.4536 " fill="#EEEEEE" style="stroke:#000000;stroke-width:1.5;"/><rect fill="none" height="67.2632" rx="10" ry="10" style="stroke:#000000;stroke-width:1.5;" width="176.5" x="251" y="736.4536"/><text fill="#000000" font-family="sans-serif" font-size="13" font-weight="bold" lengthAdjust="spacing" textLength="16" x="266" y="752.3516">alt</text><text fill="#000000" font-family="sans-serif" font-size="13" font-weight="bold" lengthAdjust="spacing" textLength="73" x="327" y="753.3516">[&#21551;&#29992;&#26102;&#38388;&#25139;]</text><line style="stroke:#181818;stroke-width:2.0;" x1="317.5" x2="359.5" y1="782.7168" y2="782.7168"/><line style="stroke:#181818;stroke-width:2.0;" x1="359.5" x2="359.5" y1="782.7168" y2="795.7168"/><line style="stroke:#181818;stroke-width:2.0;" x1="318.5" x2="359.5" y1="795.7168" y2="795.7168"/><polygon fill="#181818" points="328.5,791.7168,318.5,795.7168,328.5,799.7168,324.5,795.7168" style="stroke:#181818;stroke-width:1.0;"/><text fill="#000000" font-family="sans-serif" font-size="13" lengthAdjust="spacing" textLength="91" x="324.5" y="777.8604">&#28155;&#21152;&#26102;&#38388;&#25139;&#21069;&#32512;</text><line style="stroke:#181818;stroke-width:2.0;" x1="317.5" x2="359.5" y1="834.4712" y2="834.4712"/><line style="stroke:#181818;stroke-width:2.0;" x1="359.5" x2="359.5" y1="834.4712" y2="847.4712"/><line style="stroke:#181818;stroke-width:2.0;" x1="318.5" x2="359.5" y1="847.4712" y2="847.4712"/><polygon fill="#181818" points="328.5,843.4712,318.5,847.4712,328.5,851.4712,324.5,847.4712" style="stroke:#181818;stroke-width:1.0;"/><text fill="#000000" font-family="sans-serif" font-size="13" lengthAdjust="spacing" textLength="137" x="324.5" y="829.6147">append_to_receive(text)</text><polygon fill="#181818" points="467.5,875.2256,477.5,879.2256,467.5,883.2256,471.5,879.2256" style="stroke:#181818;stroke-width:1.0;"/><line style="stroke:#181818;stroke-width:2.0;" x1="317.5" x2="473.5" y1="879.2256" y2="879.2256"/><text fill="#000000" font-family="sans-serif" font-size="13" lengthAdjust="spacing" textLength="143" x="324.5" y="874.3691">&#25554;&#20837;&#25991;&#26412;&#21040; receive_tEdit</text><polygon fill="#181818" points="592.5,906.98,602.5,910.98,592.5,914.98,596.5,910.98" style="stroke:#181818;stroke-width:1.0;"/><line style="stroke:#181818;stroke-width:2.0;stroke-dasharray:2.0,2.0;" x1="484.5" x2="598.5" y1="910.98" y2="910.98"/><text fill="#000000" font-family="sans-serif" font-size="13" lengthAdjust="spacing" textLength="91" x="491.5" y="906.1235">&#26174;&#31034;&#25509;&#25910;&#30340;&#25968;&#25454;</text><!--SRC=[VPJVJXD15CRlvoacwmKb1aL8q3JH18W4BZ0YDc88sKns3tJ2ihFEJg5u1Od4ecADGL0W4Q8OBXI9yY-LmCimKtWBPtQNigr4qj1Ep- -SyvtvpbPGuG6MbR8iBSlLOzn-ytOMgxURQd5VVTXH2zjgRxQwzHgXS9pw0U5a0eVmh02-0vsSiwd7UUgC-n26k2s5S5RmNOTn7pXkQqq5keWpFXP5kvd7E9xAKm6fU0_pnGCo0TZgfmvd8HiL-2df1Mgb81T6IS4JXXsapm7VQaT8HmHrQ41yWHyoBZ09iJKm29mIpvojEYB-Fc8IX3D73r5FTGP12j6dReyqChc-2CbHEwRiVaBz9zHtsPI5Y2FqZBbGtuA1gejRgdHW8HG9RBcNoCXY3iITVgJ_uTEJ3La-C8bqaWX82EGp_PdJiRp8ujF3NxByHQtDn_x8qixPyJ52oKWDLMsN299fJaLDxpZMwNawKcjb0ecoL961hcbXd2RJo8LwzigM3j19i1tjiC3Nx-9G-rFZXg-rjdPqzFICw0nzcrbinDb9JctsL9ja-akDEWiPLouACD-kgv4nfsQTu0bSNTnJQvNuah0rt3-IBHQB5iBwBrrYWccFuYf1l0JwKXgXGg01iCC0mBMTlFO_WTB6gDLTjRHpFlDPLhxfH-biOmk15m9MdxRFPrOIso8vKQhHA1TcvToFivDLMTfN7u-hNojHgB6zOBrGp3JV42mN1C2JtesKMZ-IHsNvPkdqi8AjeI4SlUA9Oo5BBzNQz__qSS5XBcIQ2cAqvKvJt0LyDtg_rFpkfrdavVtpvLrL-dsrb8C_yjLwZP7p2zMZcN_BfLE8dintRS4kpCm8A8ewAt9zkdBvlPpRZ2VHgr_RE77VfIBMUB4ikRxeh9zGiz3cATJfqV3nxrjrvKNAZjJQwKGZCxs9Pl7-0W00]--></g></svg>