<?xml version="1.0" encoding="us-ascii" standalone="no"?><svg xmlns="http://www.w3.org/2000/svg" xmlns:xlink="http://www.w3.org/1999/xlink" contentStyleType="text/css" height="1151px" preserveAspectRatio="none" style="width:762px;height:1151px;background:#FFFFFF;" version="1.1" viewBox="0 0 762 1151" width="762px" zoomAndPan="magnify"><defs/><g><text fill="#000000" font-family="sans-serif" font-size="14" font-weight="bold" lengthAdjust="spacing" textLength="158" x="303.25" y="31.0439">&#24207;&#21015;&#22270; 4/7: &#21457;&#36865;&#25968;&#25454;&#27969;&#31243;</text><rect fill="#FFFFFF" height="31.7544" style="stroke:#181818;stroke-width:1.0;" width="10" x="192" y="156.6289"/><rect fill="#FFFFFF" height="31.7544" style="stroke:#181818;stroke-width:1.0;" width="10" x="192" y="294.4009"/><rect fill="#FFFFFF" height="31.7544" style="stroke:#181818;stroke-width:1.0;" width="10" x="192" y="890.7344"/><rect fill="#FFFFFF" height="31.7544" style="stroke:#181818;stroke-width:1.0;" width="10" x="192" y="1005.752"/><rect fill="#FFFFFF" height="871.123" style="stroke:#181818;stroke-width:1.0;" width="10" x="346" y="188.3833"/><rect fill="#FFFFFF" height="201.2808" style="stroke:#181818;stroke-width:1.0;" width="10" x="543" y="657.6992"/><rect fill="#FFFFFF" height="31.7544" style="stroke:#181818;stroke-width:1.0;" width="10" x="690" y="689.4536"/><rect fill="none" height="804.3687" rx="10" ry="10" style="stroke:#000000;stroke-width:1.5;" width="745.5" x="10" y="248.1377"/><rect fill="none" height="266.0352" rx="10" ry="10" style="stroke:#000000;stroke-width:1.5;" width="207.5" x="289.5" y="360.9097"/><rect fill="none" height="309.2983" rx="10" ry="10" style="stroke:#000000;stroke-width:1.5;" width="725.5" x="20" y="736.208"/><line style="stroke:#181818;stroke-width:0.5;stroke-dasharray:5.0,5.0;" x1="46" x2="46" y1="122.8745" y2="1069.5063"/><line style="stroke:#181818;stroke-width:0.5;stroke-dasharray:5.0,5.0;" x1="196.5" x2="196.5" y1="122.8745" y2="1069.5063"/><line style="stroke:#181818;stroke-width:0.5;stroke-dasharray:5.0,5.0;" x1="350.5" x2="350.5" y1="122.8745" y2="1069.5063"/><line style="stroke:#181818;stroke-width:0.5;stroke-dasharray:5.0,5.0;" x1="547.5" x2="547.5" y1="122.8745" y2="1069.5063"/><line style="stroke:#181818;stroke-width:0.5;stroke-dasharray:5.0,5.0;" x1="694.5" x2="694.5" y1="122.8745" y2="1069.5063"/><text fill="#000000" font-family="sans-serif" font-size="13" lengthAdjust="spacing" textLength="26" x="30" y="120.0181">&#29992;&#25143;</text><ellipse cx="46" cy="53.6201" fill="#E2E2F0" rx="8" ry="8" style="stroke:#181818;stroke-width:0.5;"/><path d="M46,61.6201 L46,88.6201 M33,69.6201 L59,69.6201 M46,88.6201 L33,103.6201 M46,88.6201 L59,103.6201 " fill="none" style="stroke:#181818;stroke-width:0.5;"/><text fill="#000000" font-family="sans-serif" font-size="13" lengthAdjust="spacing" textLength="26" x="30" y="1083.4043">&#29992;&#25143;</text><ellipse cx="46" cy="1094.7607" fill="#E2E2F0" rx="8" ry="8" style="stroke:#181818;stroke-width:0.5;"/><path d="M46,1102.7607 L46,1129.7607 M33,1110.7607 L59,1110.7607 M46,1129.7607 L33,1144.7607 M46,1129.7607 L59,1144.7607 " fill="none" style="stroke:#181818;stroke-width:0.5;"/><rect fill="#E2E2F0" height="31.7544" rx="10" ry="10" style="stroke:#181818;stroke-width:0.5;" width="147" x="123.5" y="90.1201"/><text fill="#000000" font-family="sans-serif" font-size="13" lengthAdjust="spacing" textLength="133" x="130.5" y="112.0181">Ui_Serial_MainWindow</text><rect fill="#E2E2F0" height="31.7544" rx="10" ry="10" style="stroke:#181818;stroke-width:0.5;" width="147" x="123.5" y="1068.5063"/><text fill="#000000" font-family="sans-serif" font-size="13" lengthAdjust="spacing" textLength="133" x="130.5" y="1090.4043">Ui_Serial_MainWindow</text><rect fill="#E2E2F0" height="31.7544" rx="10" ry="10" style="stroke:#181818;stroke-width:0.5;" width="103" x="299.5" y="90.1201"/><text fill="#000000" font-family="sans-serif" font-size="13" lengthAdjust="spacing" textLength="89" x="306.5" y="112.0181">SerialAppClass</text><rect fill="#E2E2F0" height="31.7544" rx="10" ry="10" style="stroke:#181818;stroke-width:0.5;" width="103" x="299.5" y="1068.5063"/><text fill="#000000" font-family="sans-serif" font-size="13" lengthAdjust="spacing" textLength="89" x="306.5" y="1090.4043">SerialAppClass</text><rect fill="#E2E2F0" height="31.7544" rx="10" ry="10" style="stroke:#181818;stroke-width:0.5;" width="95" x="500.5" y="90.1201"/><text fill="#000000" font-family="sans-serif" font-size="13" lengthAdjust="spacing" textLength="81" x="507.5" y="112.0181">SerialProcess</text><rect fill="#E2E2F0" height="31.7544" rx="10" ry="10" style="stroke:#181818;stroke-width:0.5;" width="95" x="500.5" y="1068.5063"/><text fill="#000000" font-family="sans-serif" font-size="13" lengthAdjust="spacing" textLength="81" x="507.5" y="1090.4043">SerialProcess</text><rect fill="#E2E2F0" height="31.7544" rx="10" ry="10" style="stroke:#181818;stroke-width:0.5;" width="81" x="654.5" y="90.1201"/><text fill="#000000" font-family="sans-serif" font-size="13" lengthAdjust="spacing" textLength="67" x="661.5" y="112.0181">QSerialPort</text><rect fill="#E2E2F0" height="31.7544" rx="10" ry="10" style="stroke:#181818;stroke-width:0.5;" width="81" x="654.5" y="1068.5063"/><text fill="#000000" font-family="sans-serif" font-size="13" lengthAdjust="spacing" textLength="67" x="661.5" y="1090.4043">QSerialPort</text><rect fill="#FFFFFF" height="31.7544" style="stroke:#181818;stroke-width:1.0;" width="10" x="192" y="156.6289"/><rect fill="#FFFFFF" height="31.7544" style="stroke:#181818;stroke-width:1.0;" width="10" x="192" y="294.4009"/><rect fill="#FFFFFF" height="31.7544" style="stroke:#181818;stroke-width:1.0;" width="10" x="192" y="890.7344"/><rect fill="#FFFFFF" height="31.7544" style="stroke:#181818;stroke-width:1.0;" width="10" x="192" y="1005.752"/><rect fill="#FFFFFF" height="871.123" style="stroke:#181818;stroke-width:1.0;" width="10" x="346" y="188.3833"/><rect fill="#FFFFFF" height="201.2808" style="stroke:#181818;stroke-width:1.0;" width="10" x="543" y="657.6992"/><rect fill="#FFFFFF" height="31.7544" style="stroke:#181818;stroke-width:1.0;" width="10" x="690" y="689.4536"/><polygon fill="#181818" points="180,152.6289,190,156.6289,180,160.6289,184,156.6289" style="stroke:#181818;stroke-width:1.0;"/><line style="stroke:#181818;stroke-width:2.0;" x1="46" x2="186" y1="156.6289" y2="156.6289"/><text fill="#000000" font-family="sans-serif" font-size="13" lengthAdjust="spacing" textLength="127" x="53" y="151.7725">&#36755;&#20837;&#25968;&#25454;&#24182;&#28857;&#20987;"&#21457;&#36865;"</text><polygon fill="#181818" points="334,184.3833,344,188.3833,334,192.3833,338,188.3833" style="stroke:#181818;stroke-width:1.0;"/><line style="stroke:#181818;stroke-width:2.0;" x1="197" x2="340" y1="188.3833" y2="188.3833"/><text fill="#000000" font-family="sans-serif" font-size="13" lengthAdjust="spacing" textLength="125" x="204" y="183.5269">self_send_btn.clicked</text><line style="stroke:#181818;stroke-width:2.0;" x1="356" x2="398" y1="220.1377" y2="220.1377"/><line style="stroke:#181818;stroke-width:2.0;" x1="398" x2="398" y1="220.1377" y2="233.1377"/><line style="stroke:#181818;stroke-width:2.0;" x1="357" x2="398" y1="233.1377" y2="233.1377"/><polygon fill="#181818" points="367,229.1377,357,233.1377,367,237.1377,363,233.1377" style="stroke:#181818;stroke-width:1.0;"/><text fill="#000000" font-family="sans-serif" font-size="13" lengthAdjust="spacing" textLength="68" x="363" y="215.2813">send_data()</text><path d="M20,248.1377 L71,248.1377 L71,257.8921 L61,267.8921 L10,267.8921 L10,258.1377 A10,10 0 0 1 20,248.1377 " fill="#EEEEEE" style="stroke:#000000;stroke-width:1.5;"/><rect fill="none" height="804.3687" rx="10" ry="10" style="stroke:#000000;stroke-width:1.5;" width="745.5" x="10" y="248.1377"/><text fill="#000000" font-family="sans-serif" font-size="13" font-weight="bold" lengthAdjust="spacing" textLength="16" x="25" y="264.0356">alt</text><text fill="#000000" font-family="sans-serif" font-size="13" font-weight="bold" lengthAdjust="spacing" textLength="73" x="86" y="265.0356">[&#20018;&#21475;&#26410;&#25171;&#24320;]</text><polygon fill="#181818" points="213,290.4009,203,294.4009,213,298.4009,209,294.4009" style="stroke:#181818;stroke-width:1.0;"/><line style="stroke:#181818;stroke-width:2.0;" x1="207" x2="345" y1="294.4009" y2="294.4009"/><text fill="#000000" font-family="sans-serif" font-size="13" lengthAdjust="spacing" textLength="78" x="219" y="289.5444">&#26174;&#31034;&#38169;&#35823;&#25552;&#31034;</text><polygon fill="#181818" points="57,322.1553,47,326.1553,57,330.1553,53,326.1553" style="stroke:#181818;stroke-width:1.0;"/><line style="stroke:#181818;stroke-width:2.0;stroke-dasharray:2.0,2.0;" x1="51" x2="196" y1="326.1553" y2="326.1553"/><text fill="#000000" font-family="sans-serif" font-size="13" lengthAdjust="spacing" textLength="75" x="63" y="321.2988">"&#20018;&#21475;&#26410;&#25171;&#24320;"</text><line style="stroke:#000000;stroke-width:1.0;stroke-dasharray:2.0,2.0;" x1="10" x2="755.5" y1="335.1553" y2="335.1553"/><text fill="#000000" font-family="sans-serif" font-size="13" font-weight="bold" lengthAdjust="spacing" textLength="73" x="15" y="350.0532">[&#20018;&#21475;&#24050;&#25171;&#24320;]</text><path d="M299.5,360.9097 L350.5,360.9097 L350.5,370.6641 L340.5,380.6641 L289.5,380.6641 L289.5,370.9097 A10,10 0 0 1 299.5,360.9097 " fill="#EEEEEE" style="stroke:#000000;stroke-width:1.5;"/><rect fill="none" height="266.0352" rx="10" ry="10" style="stroke:#000000;stroke-width:1.5;" width="207.5" x="289.5" y="360.9097"/><text fill="#000000" font-family="sans-serif" font-size="13" font-weight="bold" lengthAdjust="spacing" textLength="16" x="304.5" y="376.8076">alt</text><text fill="#000000" font-family="sans-serif" font-size="13" font-weight="bold" lengthAdjust="spacing" textLength="112" x="365.5" y="377.8076">[&#21313;&#20845;&#36827;&#21046;&#21457;&#36865;&#27169;&#24335;]</text><line style="stroke:#181818;stroke-width:2.0;" x1="356" x2="398" y1="407.1729" y2="407.1729"/><line style="stroke:#181818;stroke-width:2.0;" x1="398" x2="398" y1="407.1729" y2="420.1729"/><line style="stroke:#181818;stroke-width:2.0;" x1="357" x2="398" y1="420.1729" y2="420.1729"/><polygon fill="#181818" points="367,416.1729,357,420.1729,367,424.1729,363,420.1729" style="stroke:#181818;stroke-width:1.0;"/><text fill="#000000" font-family="sans-serif" font-size="13" lengthAdjust="spacing" textLength="122" x="363" y="402.3164">&#33719;&#21462; actual_hex_text</text><line style="stroke:#181818;stroke-width:2.0;" x1="356" x2="398" y1="451.9272" y2="451.9272"/><line style="stroke:#181818;stroke-width:2.0;" x1="398" x2="398" y1="451.9272" y2="464.9272"/><line style="stroke:#181818;stroke-width:2.0;" x1="357" x2="398" y1="464.9272" y2="464.9272"/><polygon fill="#181818" points="367,460.9272,357,464.9272,367,468.9272,363,464.9272" style="stroke:#181818;stroke-width:1.0;"/><text fill="#000000" font-family="sans-serif" font-size="13" lengthAdjust="spacing" textLength="91" x="363" y="447.0708">&#31227;&#38500;&#31354;&#26684;&#12289;&#25442;&#34892;</text><line style="stroke:#181818;stroke-width:2.0;" x1="356" x2="398" y1="496.6816" y2="496.6816"/><line style="stroke:#181818;stroke-width:2.0;" x1="398" x2="398" y1="496.6816" y2="509.6816"/><line style="stroke:#181818;stroke-width:2.0;" x1="357" x2="398" y1="509.6816" y2="509.6816"/><polygon fill="#181818" points="367,505.6816,357,509.6816,367,513.6816,363,509.6816" style="stroke:#181818;stroke-width:1.0;"/><text fill="#000000" font-family="sans-serif" font-size="13" lengthAdjust="spacing" textLength="90" x="363" y="491.8252">bytes.fromhex()</text><line style="stroke:#000000;stroke-width:1.0;stroke-dasharray:2.0,2.0;" x1="289.5" x2="497" y1="518.6816" y2="518.6816"/><text fill="#000000" font-family="sans-serif" font-size="13" font-weight="bold" lengthAdjust="spacing" textLength="86" x="294.5" y="533.5796">[&#25991;&#26412;&#21457;&#36865;&#27169;&#24335;]</text><line style="stroke:#181818;stroke-width:2.0;" x1="356" x2="398" y1="561.1904" y2="561.1904"/><line style="stroke:#181818;stroke-width:2.0;" x1="398" x2="398" y1="561.1904" y2="574.1904"/><line style="stroke:#181818;stroke-width:2.0;" x1="357" x2="398" y1="574.1904" y2="574.1904"/><polygon fill="#181818" points="367,570.1904,357,574.1904,367,578.1904,363,574.1904" style="stroke:#181818;stroke-width:1.0;"/><text fill="#000000" font-family="sans-serif" font-size="13" lengthAdjust="spacing" textLength="94" x="363" y="556.334">&#33719;&#21462; actual_text</text><line style="stroke:#181818;stroke-width:2.0;" x1="356" x2="398" y1="605.9448" y2="605.9448"/><line style="stroke:#181818;stroke-width:2.0;" x1="398" x2="398" y1="605.9448" y2="618.9448"/><line style="stroke:#181818;stroke-width:2.0;" x1="357" x2="398" y1="618.9448" y2="618.9448"/><polygon fill="#181818" points="367,614.9448,357,618.9448,367,622.9448,363,618.9448" style="stroke:#181818;stroke-width:1.0;"/><text fill="#000000" font-family="sans-serif" font-size="13" lengthAdjust="spacing" textLength="79" x="363" y="601.0884">encode('utf-8')</text><polygon fill="#181818" points="531,653.6992,541,657.6992,531,661.6992,535,657.6992" style="stroke:#181818;stroke-width:1.0;"/><line style="stroke:#181818;stroke-width:2.0;" x1="356" x2="537" y1="657.6992" y2="657.6992"/><text fill="#000000" font-family="sans-serif" font-size="13" lengthAdjust="spacing" textLength="168" x="363" y="652.8428">send_data(data, hex, is_hex)</text><polygon fill="#181818" points="678,685.4536,688,689.4536,678,693.4536,682,689.4536" style="stroke:#181818;stroke-width:1.0;"/><line style="stroke:#181818;stroke-width:2.0;" x1="553" x2="684" y1="689.4536" y2="689.4536"/><text fill="#000000" font-family="sans-serif" font-size="13" lengthAdjust="spacing" textLength="92" x="560" y="684.5972">write(byte_data)</text><polygon fill="#181818" points="564,717.208,554,721.208,564,725.208,560,721.208" style="stroke:#181818;stroke-width:1.0;"/><line style="stroke:#181818;stroke-width:2.0;stroke-dasharray:2.0,2.0;" x1="558" x2="694" y1="721.208" y2="721.208"/><text fill="#000000" font-family="sans-serif" font-size="13" lengthAdjust="spacing" textLength="77" x="570" y="716.3516">bytes_written</text><path d="M30,736.208 L81,736.208 L81,745.9624 L71,755.9624 L20,755.9624 L20,746.208 A10,10 0 0 1 30,736.208 " fill="#EEEEEE" style="stroke:#000000;stroke-width:1.5;"/><rect fill="none" height="309.2983" rx="10" ry="10" style="stroke:#000000;stroke-width:1.5;" width="725.5" x="20" y="736.208"/><text fill="#000000" font-family="sans-serif" font-size="13" font-weight="bold" lengthAdjust="spacing" textLength="16" x="35" y="752.106">alt</text><text fill="#000000" font-family="sans-serif" font-size="13" font-weight="bold" lengthAdjust="spacing" textLength="60" x="96" y="753.106">[&#21457;&#36865;&#25104;&#21151;]</text><line style="stroke:#181818;stroke-width:2.0;" x1="553" x2="595" y1="782.4712" y2="782.4712"/><line style="stroke:#181818;stroke-width:2.0;" x1="595" x2="595" y1="782.4712" y2="795.4712"/><line style="stroke:#181818;stroke-width:2.0;" x1="554" x2="595" y1="795.4712" y2="795.4712"/><polygon fill="#181818" points="564,791.4712,554,795.4712,564,799.4712,560,795.4712" style="stroke:#181818;stroke-width:1.0;"/><text fill="#000000" font-family="sans-serif" font-size="13" lengthAdjust="spacing" textLength="123" x="560" y="777.6147">send_count += bytes</text><polygon fill="#181818" points="683,823.2256,693,827.2256,683,831.2256,687,827.2256" style="stroke:#181818;stroke-width:1.0;"/><line style="stroke:#181818;stroke-width:2.0;" x1="553" x2="689" y1="827.2256" y2="827.2256"/><text fill="#000000" font-family="sans-serif" font-size="13" lengthAdjust="spacing" textLength="35" x="560" y="822.3691">flush()</text><polygon fill="#181818" points="367,854.98,357,858.98,367,862.98,363,858.98" style="stroke:#181818;stroke-width:1.0;"/><line style="stroke:#181818;stroke-width:2.0;stroke-dasharray:2.0,2.0;" x1="361" x2="547" y1="858.98" y2="858.98"/><text fill="#000000" font-family="sans-serif" font-size="13" lengthAdjust="spacing" textLength="25" x="373" y="854.1235">True</text><polygon fill="#181818" points="213,886.7344,203,890.7344,213,894.7344,209,890.7344" style="stroke:#181818;stroke-width:1.0;"/><line style="stroke:#181818;stroke-width:2.0;" x1="207" x2="345" y1="890.7344" y2="890.7344"/><text fill="#000000" font-family="sans-serif" font-size="13" lengthAdjust="spacing" textLength="78" x="219" y="885.8779">&#26356;&#26032;&#21457;&#36865;&#32479;&#35745;</text><polygon fill="#181818" points="57,918.4888,47,922.4888,57,926.4888,53,922.4888" style="stroke:#181818;stroke-width:1.0;"/><line style="stroke:#181818;stroke-width:2.0;stroke-dasharray:2.0,2.0;" x1="51" x2="196" y1="922.4888" y2="922.4888"/><text fill="#000000" font-family="sans-serif" font-size="13" lengthAdjust="spacing" textLength="78" x="63" y="917.6323">&#26174;&#31034;&#21457;&#36865;&#25104;&#21151;</text><line style="stroke:#000000;stroke-width:1.0;stroke-dasharray:2.0,2.0;" x1="20" x2="745.5" y1="931.4888" y2="931.4888"/><text fill="#000000" font-family="sans-serif" font-size="13" font-weight="bold" lengthAdjust="spacing" textLength="60" x="25" y="946.3867">[&#21457;&#36865;&#22833;&#36133;]</text><polygon fill="#FF0000" points="367,969.9976,357,973.9976,367,977.9976,363,973.9976" style="stroke:#FF0000;stroke-width:1.0;"/><line style="stroke:#FF0000;stroke-width:2.0;stroke-dasharray:2.0,2.0;" x1="361" x2="547" y1="973.9976" y2="973.9976"/><text fill="#000000" font-family="sans-serif" font-size="13" lengthAdjust="spacing" textLength="83" x="373" y="969.1411">error_occurred</text><polygon fill="#181818" points="213,1001.752,203,1005.752,213,1009.752,209,1005.752" style="stroke:#181818;stroke-width:1.0;"/><line style="stroke:#181818;stroke-width:2.0;" x1="207" x2="345" y1="1005.752" y2="1005.752"/><text fill="#000000" font-family="sans-serif" font-size="13" lengthAdjust="spacing" textLength="52" x="219" y="1000.8955">&#26174;&#31034;&#38169;&#35823;</text><polygon fill="#181818" points="57,1033.5063,47,1037.5063,57,1041.5063,53,1037.5063" style="stroke:#181818;stroke-width:1.0;"/><line style="stroke:#181818;stroke-width:2.0;stroke-dasharray:2.0,2.0;" x1="51" x2="196" y1="1037.5063" y2="1037.5063"/><text fill="#000000" font-family="sans-serif" font-size="13" lengthAdjust="spacing" textLength="78" x="63" y="1032.6499">&#26174;&#31034;&#22833;&#36133;&#20449;&#24687;</text><!--SRC=[dLHTJnD157tVNp5P7u08Y6YYQQ89aX1zm62066DCC-nExOHbjyxEMl29cX3g1nO3eWGIh494eu04GJu2FqPck_mBxypMTbgg2MxIRgVtd3ldt7jdEEKEGMAl8F9lnS8XkdpXIWA9mkkJyLpuPYESMWj_v4ghBmp37wPk1ZCyWdpoA22kHReOyx83QMeDkyJtKQS6OLxWsfR7NC9GPuSMk86juOSgskqv7aFPDEL4Y_TuBh-DHmWoUwd5FDzBSNGFtoJKr40sIU70uHBRJvyGTF6IOM2BGxf17pR4FZ9BiwjXViSqWC2fHJFOvMZmbWeDqcG_OHGxoLvCtRlKjRriBR0har7860QhRWVxVYqcZccmFkPPf1xLvp6kC7VA85YRXg5ajbq7HGaK7Sw8YPMurc9tk_HqLqpkct47J6cBFiQS0DG0_S01EGbeWPDA-iIraqFSRRSSw06n3Pley2eNA8RqL6K3qSOSDxS0ok7e-EUcA7mC5x-4psR4mRY1u2aJfCJmtM5fUUzaTZvQNmyBq_1R8VJDv5hgammmbq1cNKvJGMeL4iSdvRt5pgQsjzGafd9Yubjqj23os-LvN2sAWu82Q0ALe-ZLZYZCIKK1z3LDHfESZFA6qDAd_PFvvTBdlV3zmIz8ElKXAhviY1mQuyHlJp5l1192gMHSIGxd9iF5hsSKzLT1S9GycpGt1JpLThMfl8rhgxVUYNY2zEx9hrO4ubeHzQNhbjg-n8ngelBCGYuvXmcKPN3ucgLDbQ-EBJ7g7pN4RPe2LPYaP7FYrlUrGgjsCYvKVbeyNwfKeAgbnfS5LmD7vw_5UpH0nyfJJk2dootHutzgEi02KWbguhIAL2JM3_l2LZYt4MikxIz5QyKAgdxWJmrzV50Q-gsT_CeenLYn_3tQMZdbvlwvdfuEU1vKHWLkN9RqB2jWZDZ_Qr0xpMUsfeGU7nN3tFg_hC7uoez-8ybBw3S0]--></g></svg>