<?xml version="1.0" encoding="us-ascii" standalone="no"?><svg xmlns="http://www.w3.org/2000/svg" xmlns:xlink="http://www.w3.org/1999/xlink" contentStyleType="text/css" height="834px" preserveAspectRatio="none" style="width:611px;height:834px;background:#FFFFFF;" version="1.1" viewBox="0 0 611 834" width="611px" zoomAndPan="magnify"><defs/><g><text fill="#000000" font-family="sans-serif" font-size="14" font-weight="bold" lengthAdjust="spacing" textLength="158" x="222.5" y="31.0439">&#24207;&#21015;&#22270; 5/7: &#33258;&#21160;&#21457;&#36865;&#27969;&#31243;</text><rect fill="#FFFFFF" height="31.7544" style="stroke:#181818;stroke-width:1.0;" width="10" x="159" y="202.3833"/><rect fill="#FFFFFF" height="31.7544" style="stroke:#181818;stroke-width:1.0;" width="10" x="159" y="607.436"/><rect fill="#FFFFFF" height="31.7544" style="stroke:#181818;stroke-width:1.0;" width="10" x="159" y="702.6992"/><rect fill="#FFFFFF" height="500.3159" style="stroke:#181818;stroke-width:1.0;" width="10" x="323" y="234.1377"/><rect fill="#FFFFFF" height="301.7896" style="stroke:#181818;stroke-width:1.0;" width="10" x="492" y="369.1553"/><rect fill="none" height="143.772" rx="10" ry="10" style="stroke:#000000;stroke-width:1.5;" width="298.5" x="266.5" y="387.1553"/><line style="stroke:#181818;stroke-width:0.5;stroke-dasharray:5.0,5.0;" x1="21" x2="21" y1="122.8745" y2="752.4536"/><line style="stroke:#181818;stroke-width:0.5;stroke-dasharray:5.0,5.0;" x1="163.5" x2="163.5" y1="122.8745" y2="752.4536"/><line style="stroke:#181818;stroke-width:0.5;stroke-dasharray:5.0,5.0;" x1="327.5" x2="327.5" y1="122.8745" y2="752.4536"/><line style="stroke:#181818;stroke-width:0.5;stroke-dasharray:5.0,5.0;" x1="497" x2="497" y1="122.8745" y2="752.4536"/><text fill="#000000" font-family="sans-serif" font-size="13" lengthAdjust="spacing" textLength="26" x="5" y="120.0181">&#29992;&#25143;</text><ellipse cx="21" cy="53.6201" fill="#E2E2F0" rx="8" ry="8" style="stroke:#181818;stroke-width:0.5;"/><path d="M21,61.6201 L21,88.6201 M8,69.6201 L34,69.6201 M21,88.6201 L8,103.6201 M21,88.6201 L34,103.6201 " fill="none" style="stroke:#181818;stroke-width:0.5;"/><text fill="#000000" font-family="sans-serif" font-size="13" lengthAdjust="spacing" textLength="26" x="5" y="766.3516">&#29992;&#25143;</text><ellipse cx="21" cy="777.708" fill="#E2E2F0" rx="8" ry="8" style="stroke:#181818;stroke-width:0.5;"/><path d="M21,785.708 L21,812.708 M8,793.708 L34,793.708 M21,812.708 L8,827.708 M21,812.708 L34,827.708 " fill="none" style="stroke:#181818;stroke-width:0.5;"/><rect fill="#E2E2F0" height="31.7544" rx="10" ry="10" style="stroke:#181818;stroke-width:0.5;" width="147" x="90.5" y="90.1201"/><text fill="#000000" font-family="sans-serif" font-size="13" lengthAdjust="spacing" textLength="133" x="97.5" y="112.0181">Ui_Serial_MainWindow</text><rect fill="#E2E2F0" height="31.7544" rx="10" ry="10" style="stroke:#181818;stroke-width:0.5;" width="147" x="90.5" y="751.4536"/><text fill="#000000" font-family="sans-serif" font-size="13" lengthAdjust="spacing" textLength="133" x="97.5" y="773.3516">Ui_Serial_MainWindow</text><rect fill="#E2E2F0" height="31.7544" rx="10" ry="10" style="stroke:#181818;stroke-width:0.5;" width="103" x="276.5" y="90.1201"/><text fill="#000000" font-family="sans-serif" font-size="13" lengthAdjust="spacing" textLength="89" x="283.5" y="112.0181">SerialAppClass</text><rect fill="#E2E2F0" height="31.7544" rx="10" ry="10" style="stroke:#181818;stroke-width:0.5;" width="103" x="276.5" y="751.4536"/><text fill="#000000" font-family="sans-serif" font-size="13" lengthAdjust="spacing" textLength="89" x="283.5" y="773.3516">SerialAppClass</text><rect fill="#E2E2F0" height="31.7544" rx="10" ry="10" style="stroke:#181818;stroke-width:0.5;" width="56" x="469" y="90.1201"/><text fill="#000000" font-family="sans-serif" font-size="13" lengthAdjust="spacing" textLength="42" x="476" y="112.0181">QTimer</text><rect fill="#E2E2F0" height="31.7544" rx="10" ry="10" style="stroke:#181818;stroke-width:0.5;" width="56" x="469" y="751.4536"/><text fill="#000000" font-family="sans-serif" font-size="13" lengthAdjust="spacing" textLength="42" x="476" y="773.3516">QTimer</text><rect fill="#FFFFFF" height="31.7544" style="stroke:#181818;stroke-width:1.0;" width="10" x="159" y="202.3833"/><rect fill="#FFFFFF" height="31.7544" style="stroke:#181818;stroke-width:1.0;" width="10" x="159" y="607.436"/><rect fill="#FFFFFF" height="31.7544" style="stroke:#181818;stroke-width:1.0;" width="10" x="159" y="702.6992"/><rect fill="#FFFFFF" height="500.3159" style="stroke:#181818;stroke-width:1.0;" width="10" x="323" y="234.1377"/><rect fill="#FFFFFF" height="301.7896" style="stroke:#181818;stroke-width:1.0;" width="10" x="492" y="369.1553"/><rect fill="#EEEEEE" height="3" rx="10" ry="10" style="stroke:#EEEEEE;stroke-width:1.0;" width="604" x="0" y="154.7517"/><line style="stroke:#000000;stroke-width:1.0;" x1="0" x2="604" y1="154.7517" y2="154.7517"/><line style="stroke:#000000;stroke-width:1.0;" x1="0" x2="604" y1="157.7517" y2="157.7517"/><rect fill="#EEEEEE" height="25.7544" rx="10" ry="10" style="stroke:#000000;stroke-width:2.0;" width="96" x="254" y="142.8745"/><text fill="#000000" font-family="sans-serif" font-size="13" font-weight="bold" lengthAdjust="spacing" textLength="78" x="260" y="161.7725">&#21551;&#21160;&#33258;&#21160;&#21457;&#36865;</text><polygon fill="#181818" points="147,198.3833,157,202.3833,147,206.3833,151,202.3833" style="stroke:#181818;stroke-width:1.0;"/><line style="stroke:#181818;stroke-width:2.0;" x1="21" x2="153" y1="202.3833" y2="202.3833"/><text fill="#000000" font-family="sans-serif" font-size="13" lengthAdjust="spacing" textLength="114" x="28" y="197.5269">&#28857;&#20987;"&#21551;&#21160;&#33258;&#21160;&#21457;&#36865;"</text><polygon fill="#181818" points="311,230.1377,321,234.1377,311,238.1377,315,234.1377" style="stroke:#181818;stroke-width:1.0;"/><line style="stroke:#181818;stroke-width:2.0;" x1="164" x2="317" y1="234.1377" y2="234.1377"/><text fill="#000000" font-family="sans-serif" font-size="13" lengthAdjust="spacing" textLength="130" x="171" y="229.2813">auto_send_btn.clicked</text><line style="stroke:#181818;stroke-width:2.0;" x1="333" x2="375" y1="265.8921" y2="265.8921"/><line style="stroke:#181818;stroke-width:2.0;" x1="375" x2="375" y1="265.8921" y2="278.8921"/><line style="stroke:#181818;stroke-width:2.0;" x1="334" x2="375" y1="278.8921" y2="278.8921"/><polygon fill="#181818" points="344,274.8921,334,278.8921,344,282.8921,340,278.8921" style="stroke:#181818;stroke-width:1.0;"/><text fill="#000000" font-family="sans-serif" font-size="13" lengthAdjust="spacing" textLength="145" x="340" y="261.0356">on_auto_send_changed()</text><line style="stroke:#181818;stroke-width:2.0;" x1="333" x2="375" y1="316.0237" y2="316.0237"/><line style="stroke:#181818;stroke-width:2.0;" x1="375" x2="375" y1="316.0237" y2="329.0237"/><line style="stroke:#181818;stroke-width:2.0;" x1="334" x2="375" y1="329.0237" y2="329.0237"/><polygon fill="#181818" points="344,325.0237,334,329.0237,344,333.0237,340,329.0237" style="stroke:#181818;stroke-width:1.0;"/><text fill="#000000" font-family="sans-serif" font-size="13" lengthAdjust="spacing" textLength="78" x="340" y="311.1672">&#35835;&#21462;&#21457;&#36865;&#38388;&#38548;</text><path d="M430,301.8921 L430,326.8921 A10,10 0 0 0 440,336.8921 L579,336.8921 A10,10 0 0 0 589,326.8921 L589,301.8921 L579,291.8921 L440,291.8921 A10,10 0 0 0 430,301.8921 " fill="#FEFFDD" style="stroke:#181818;stroke-width:0.5;"/><path d="M579,291.8921 L579,296.8921 A5,5 0 0 0 584,301.8921 L589,301.8921 L579,291.8921 " fill="#FEFFDD" style="stroke:#181818;stroke-width:0.5;"/><text fill="#000000" font-family="sans-serif" font-size="13" lengthAdjust="spacing" textLength="138" x="436" y="311.79">&#20174; auto_sendTime_lEdit</text><text fill="#000000" font-family="sans-serif" font-size="13" lengthAdjust="spacing" textLength="104" x="436" y="329.5444">&#33719;&#21462;&#38388;&#38548;&#26102;&#38388;(ms)</text><polygon fill="#181818" points="480,365.1553,490,369.1553,480,373.1553,484,369.1553" style="stroke:#181818;stroke-width:1.0;"/><line style="stroke:#181818;stroke-width:2.0;" x1="333" x2="486" y1="369.1553" y2="369.1553"/><text fill="#000000" font-family="sans-serif" font-size="13" lengthAdjust="spacing" textLength="74" x="340" y="364.2988">start(interval)</text><path d="M507,357.4009 L507,364.4009 A10,10 0 0 0 517,374.4009 L583,374.4009 A10,10 0 0 0 593,364.4009 L593,357.4009 L583,347.4009 L517,347.4009 A10,10 0 0 0 507,357.4009 " fill="#FEFFDD" style="stroke:#181818;stroke-width:0.5;"/><path d="M583,347.4009 L583,352.4009 A5,5 0 0 0 588,357.4009 L593,357.4009 L583,347.4009 " fill="#FEFFDD" style="stroke:#181818;stroke-width:0.5;"/><text fill="#000000" font-family="sans-serif" font-size="13" lengthAdjust="spacing" textLength="65" x="513" y="367.2988">&#21551;&#21160;&#23450;&#26102;&#22120;</text><path d="M276.5,387.1553 L339.5,387.1553 L339.5,396.9097 L329.5,406.9097 L266.5,406.9097 L266.5,397.1553 A10,10 0 0 1 276.5,387.1553 " fill="#EEEEEE" style="stroke:#000000;stroke-width:1.5;"/><rect fill="none" height="143.772" rx="10" ry="10" style="stroke:#000000;stroke-width:1.5;" width="298.5" x="266.5" y="387.1553"/><text fill="#000000" font-family="sans-serif" font-size="13" font-weight="bold" lengthAdjust="spacing" textLength="28" x="281.5" y="403.0532">loop</text><text fill="#000000" font-family="sans-serif" font-size="13" font-weight="bold" lengthAdjust="spacing" textLength="86" x="354.5" y="404.0532">[&#27599;&#38548;&#25351;&#23450;&#26102;&#38388;]</text><polygon fill="#181818" points="344,429.4185,334,433.4185,344,437.4185,340,433.4185" style="stroke:#181818;stroke-width:1.0;"/><line style="stroke:#181818;stroke-width:2.0;" x1="338" x2="491" y1="433.4185" y2="433.4185"/><text fill="#000000" font-family="sans-serif" font-size="13" lengthAdjust="spacing" textLength="73" x="350" y="428.562">timeout &#20449;&#21495;</text><line style="stroke:#181818;stroke-width:2.0;" x1="333" x2="375" y1="465.1729" y2="465.1729"/><line style="stroke:#181818;stroke-width:2.0;" x1="375" x2="375" y1="465.1729" y2="478.1729"/><line style="stroke:#181818;stroke-width:2.0;" x1="334" x2="375" y1="478.1729" y2="478.1729"/><polygon fill="#181818" points="344,474.1729,334,478.1729,344,482.1729,340,478.1729" style="stroke:#181818;stroke-width:1.0;"/><text fill="#000000" font-family="sans-serif" font-size="13" lengthAdjust="spacing" textLength="120" x="340" y="460.3164">auto_send_function()</text><line style="stroke:#181818;stroke-width:2.0;" x1="333" x2="375" y1="509.9272" y2="509.9272"/><line style="stroke:#181818;stroke-width:2.0;" x1="375" x2="375" y1="509.9272" y2="522.9272"/><line style="stroke:#181818;stroke-width:2.0;" x1="334" x2="375" y1="522.9272" y2="522.9272"/><polygon fill="#181818" points="344,518.9272,334,522.9272,344,526.9272,340,522.9272" style="stroke:#181818;stroke-width:1.0;"/><text fill="#000000" font-family="sans-serif" font-size="13" lengthAdjust="spacing" textLength="68" x="340" y="505.0708">send_data()</text><path d="M420,504.6729 L420,511.6729 A10,10 0 0 0 430,521.6729 L535,521.6729 A10,10 0 0 0 545,511.6729 L545,504.6729 L535,494.6729 L430,494.6729 A10,10 0 0 0 420,504.6729 " fill="#FEFFDD" style="stroke:#181818;stroke-width:0.5;"/><path d="M535,494.6729 L535,499.6729 A5,5 0 0 0 540,504.6729 L545,504.6729 L535,494.6729 " fill="#FEFFDD" style="stroke:#181818;stroke-width:0.5;"/><text fill="#000000" font-family="sans-serif" font-size="13" lengthAdjust="spacing" textLength="104" x="426" y="514.5708">&#22797;&#29992;&#21457;&#36865;&#25968;&#25454;&#27969;&#31243;</text><rect fill="#EEEEEE" height="3" rx="10" ry="10" style="stroke:#EEEEEE;stroke-width:1.0;" width="604" x="0" y="559.8044"/><line style="stroke:#000000;stroke-width:1.0;" x1="0" x2="604" y1="559.8044" y2="559.8044"/><line style="stroke:#000000;stroke-width:1.0;" x1="0" x2="604" y1="562.8044" y2="562.8044"/><rect fill="#EEEEEE" height="25.7544" rx="10" ry="10" style="stroke:#000000;stroke-width:2.0;" width="96" x="254" y="547.9272"/><text fill="#000000" font-family="sans-serif" font-size="13" font-weight="bold" lengthAdjust="spacing" textLength="78" x="260" y="566.8252">&#20572;&#27490;&#33258;&#21160;&#21457;&#36865;</text><polygon fill="#181818" points="147,603.436,157,607.436,147,611.436,151,607.436" style="stroke:#181818;stroke-width:1.0;"/><line style="stroke:#181818;stroke-width:2.0;" x1="21" x2="153" y1="607.436" y2="607.436"/><text fill="#000000" font-family="sans-serif" font-size="13" lengthAdjust="spacing" textLength="114" x="28" y="602.5796">&#28857;&#20987;"&#20572;&#27490;&#33258;&#21160;&#21457;&#36865;"</text><polygon fill="#181818" points="311,635.1904,321,639.1904,311,643.1904,315,639.1904" style="stroke:#181818;stroke-width:1.0;"/><line style="stroke:#181818;stroke-width:2.0;" x1="164" x2="317" y1="639.1904" y2="639.1904"/><text fill="#000000" font-family="sans-serif" font-size="13" lengthAdjust="spacing" textLength="130" x="171" y="634.334">auto_send_btn.clicked</text><polygon fill="#181818" points="485,666.9448,495,670.9448,485,674.9448,489,670.9448" style="stroke:#181818;stroke-width:1.0;"/><line style="stroke:#181818;stroke-width:2.0;" x1="333" x2="491" y1="670.9448" y2="670.9448"/><text fill="#000000" font-family="sans-serif" font-size="13" lengthAdjust="spacing" textLength="33" x="340" y="666.0884">stop()</text><polygon fill="#181818" points="180,698.6992,170,702.6992,180,706.6992,176,702.6992" style="stroke:#181818;stroke-width:1.0;"/><line style="stroke:#181818;stroke-width:2.0;" x1="174" x2="322" y1="702.6992" y2="702.6992"/><text fill="#000000" font-family="sans-serif" font-size="13" lengthAdjust="spacing" textLength="78" x="186" y="697.8428">&#26356;&#26032;&#25353;&#38062;&#25991;&#26412;</text><polygon fill="#181818" points="32,730.4536,22,734.4536,32,738.4536,28,734.4536" style="stroke:#181818;stroke-width:1.0;"/><line style="stroke:#181818;stroke-width:2.0;stroke-dasharray:2.0,2.0;" x1="26" x2="163" y1="734.4536" y2="734.4536"/><text fill="#000000" font-family="sans-serif" font-size="13" lengthAdjust="spacing" textLength="114" x="38" y="729.5972">&#26174;&#31034;"&#21551;&#21160;&#33258;&#21160;&#21457;&#36865;"</text><!--SRC=[fPFFQnD15CVlyrSCUqeE_gg848XGYwA72j864OHbt9qaGpOpwyvi0vwCbrHj6vMQQDkBqaCGJNge1Xke_qndalmNljrDo2Rn8BYd6TxdlVTztpUhcF8ercTDlTtMX-VunfMREJngVDMlExhvRloYRdxKXvqt2CaAupu9I1LB-YoatA6hGI1gcsNcL3YL4g-aa424t7L4m6c0Lwwc0hU9Kod5qJNXYG3NoapHLFokuEe1gL9ihJCd458K5NvCxb5cfI2N5adegOZTOCyfldOT8U8eA5UGq918R0ttEsQxRo58KCnXFk4A5-x7eGApDsZ0Y6Ul4yOVCUwAsZouwlincM1mM_E8bFFC9gjEMZsCZnP2-JpMRtjWNDe-dCyZ5CkwT0iKvF3mvI_T65ZBf1NDmBQ8ei0X40i9q3k7IQY4BIbtxQUANtOyC9owoALfV9OBAIWQO9ejk3qhu9G9Br4tavr3Hhs1RhOI5UFswVXW7t41fG9MAgiSlXZipJH4mzhU7PUf9toqruUy9CEqVy8XKvLPDAqT-vB3Ke5j6SOL3RQ8bvqfZUDpdH9JTFS0gkbF7OGy8NniUisemKuZ2K0RXE5BDZ2TGS5DX0fV_Fwic_qOI8yuiw0OSX0WE7Ym2CLnboWoYSr9Ezw5DpNv9JwScDtkvCU0d6JrzIFp_Si_hNw9_B_LBzejVD2VOXAVfrWan1oUcjQ9sNarVjyrhOOv-hOa829bLCzyF1yUd_trlIxeI5sZH_W7]--></g></svg>