<?xml version="1.0" encoding="us-ascii" standalone="no"?><svg xmlns="http://www.w3.org/2000/svg" xmlns:xlink="http://www.w3.org/1999/xlink" contentStyleType="text/css" height="834px" preserveAspectRatio="none" style="width:745px;height:834px;background:#FFFFFF;" version="1.1" viewBox="0 0 745 834" width="745px" zoomAndPan="magnify"><defs/><g><text fill="#000000" font-family="sans-serif" font-size="14" font-weight="bold" lengthAdjust="spacing" textLength="158" x="295.25" y="31.0439">&#24207;&#21015;&#22270; 6/7: &#37197;&#32622;&#20445;&#23384;&#27969;&#31243;</text><rect fill="#FFFFFF" height="79.1404" style="stroke:#181818;stroke-width:1.0;" width="10" x="115.5" y="186.2605"/><rect fill="#FFFFFF" height="396.0527" style="stroke:#181818;stroke-width:1.0;" width="10" x="309.5" y="265.4009"/><rect fill="#FFFFFF" height="274.7896" style="stroke:#181818;stroke-width:1.0;" width="10" x="467.5" y="386.6641"/><line style="stroke:#181818;stroke-width:0.5;stroke-dasharray:5.0,5.0;" x1="21" x2="21" y1="122.8745" y2="752.7168"/><line style="stroke:#181818;stroke-width:0.5;stroke-dasharray:5.0,5.0;" x1="120" x2="120" y1="122.8745" y2="752.7168"/><line style="stroke:#181818;stroke-width:0.5;stroke-dasharray:5.0,5.0;" x1="314" x2="314" y1="122.8745" y2="752.7168"/><line style="stroke:#181818;stroke-width:0.5;stroke-dasharray:5.0,5.0;" x1="472.5" x2="472.5" y1="122.8745" y2="752.7168"/><text fill="#000000" font-family="sans-serif" font-size="13" lengthAdjust="spacing" textLength="26" x="5" y="120.0181">&#29992;&#25143;</text><ellipse cx="21" cy="53.6201" fill="#E2E2F0" rx="8" ry="8" style="stroke:#181818;stroke-width:0.5;"/><path d="M21,61.6201 L21,88.6201 M8,69.6201 L34,69.6201 M21,88.6201 L8,103.6201 M21,88.6201 L34,103.6201 " fill="none" style="stroke:#181818;stroke-width:0.5;"/><text fill="#000000" font-family="sans-serif" font-size="13" lengthAdjust="spacing" textLength="26" x="5" y="766.6147">&#29992;&#25143;</text><ellipse cx="21" cy="777.9712" fill="#E2E2F0" rx="8" ry="8" style="stroke:#181818;stroke-width:0.5;"/><path d="M21,785.9712 L21,812.9712 M8,793.9712 L34,793.9712 M21,812.9712 L8,827.9712 M21,812.9712 L34,827.9712 " fill="none" style="stroke:#181818;stroke-width:0.5;"/><rect fill="#E2E2F0" height="31.7544" rx="10" ry="10" style="stroke:#181818;stroke-width:0.5;" width="147" x="47" y="90.1201"/><text fill="#000000" font-family="sans-serif" font-size="13" lengthAdjust="spacing" textLength="133" x="54" y="112.0181">Ui_Serial_MainWindow</text><rect fill="#E2E2F0" height="31.7544" rx="10" ry="10" style="stroke:#181818;stroke-width:0.5;" width="147" x="47" y="751.7168"/><text fill="#000000" font-family="sans-serif" font-size="13" lengthAdjust="spacing" textLength="133" x="54" y="773.6147">Ui_Serial_MainWindow</text><rect fill="#E2E2F0" height="31.7544" rx="10" ry="10" style="stroke:#181818;stroke-width:0.5;" width="103" x="263" y="90.1201"/><text fill="#000000" font-family="sans-serif" font-size="13" lengthAdjust="spacing" textLength="89" x="270" y="112.0181">SerialAppClass</text><rect fill="#E2E2F0" height="31.7544" rx="10" ry="10" style="stroke:#181818;stroke-width:0.5;" width="103" x="263" y="751.7168"/><text fill="#000000" font-family="sans-serif" font-size="13" lengthAdjust="spacing" textLength="89" x="270" y="773.6147">SerialAppClass</text><rect fill="#E2E2F0" height="31.7544" rx="10" ry="10" style="stroke:#181818;stroke-width:0.5;" width="134" x="405.5" y="90.1201"/><text fill="#000000" font-family="sans-serif" font-size="13" lengthAdjust="spacing" textLength="120" x="412.5" y="112.0181">JSONConfigManager</text><rect fill="#E2E2F0" height="31.7544" rx="10" ry="10" style="stroke:#181818;stroke-width:0.5;" width="134" x="405.5" y="751.7168"/><text fill="#000000" font-family="sans-serif" font-size="13" lengthAdjust="spacing" textLength="120" x="412.5" y="773.6147">JSONConfigManager</text><rect fill="#FFFFFF" height="79.1404" style="stroke:#181818;stroke-width:1.0;" width="10" x="115.5" y="186.2605"/><rect fill="#FFFFFF" height="396.0527" style="stroke:#181818;stroke-width:1.0;" width="10" x="309.5" y="265.4009"/><rect fill="#FFFFFF" height="274.7896" style="stroke:#181818;stroke-width:1.0;" width="10" x="467.5" y="386.6641"/><polygon fill="#181818" points="103.5,182.2605,113.5,186.2605,103.5,190.2605,107.5,186.2605" style="stroke:#181818;stroke-width:1.0;"/><line style="stroke:#181818;stroke-width:2.0;" x1="21" x2="109.5" y1="186.2605" y2="186.2605"/><text fill="#000000" font-family="sans-serif" font-size="13" lengthAdjust="spacing" textLength="52" x="28" y="181.4041">&#20462;&#25913;&#35774;&#32622;</text><path d="M130,147.8745 L130,208.8745 A10,10 0 0 0 140,218.8745 L232,218.8745 A10,10 0 0 0 242,208.8745 L242,147.8745 L232,137.8745 L140,137.8745 A10,10 0 0 0 130,147.8745 " fill="#FEFFDD" style="stroke:#181818;stroke-width:0.5;"/><path d="M232,137.8745 L232,142.8745 A5,5 0 0 0 237,147.8745 L242,147.8745 L232,137.8745 " fill="#FEFFDD" style="stroke:#181818;stroke-width:0.5;"/><text fill="#000000" font-family="sans-serif" font-size="13" lengthAdjust="spacing" textLength="91" x="136" y="157.7725">&#20462;&#25913;&#20219;&#24847;&#35774;&#32622;&#65306;</text><text fill="#000000" font-family="sans-serif" font-size="13" lengthAdjust="spacing" textLength="63" x="136" y="175.5269">&#8226; &#20018;&#21475;&#21442;&#25968;</text><text fill="#000000" font-family="sans-serif" font-size="13" lengthAdjust="spacing" textLength="76" x="136" y="193.2813">&#8226; &#22797;&#36873;&#26694;&#29366;&#24577;</text><text fill="#000000" font-family="sans-serif" font-size="13" lengthAdjust="spacing" textLength="76" x="136" y="211.0356">&#8226; &#25991;&#20214;&#36335;&#24452;&#31561;</text><polygon fill="#181818" points="297.5,261.4009,307.5,265.4009,297.5,269.4009,301.5,265.4009" style="stroke:#181818;stroke-width:1.0;"/><line style="stroke:#181818;stroke-width:2.0;" x1="120.5" x2="303.5" y1="265.4009" y2="265.4009"/><text fill="#000000" font-family="sans-serif" font-size="13" lengthAdjust="spacing" textLength="52" x="127.5" y="242.79">&#25511;&#20214;&#20449;&#21495;</text><text fill="#000000" font-family="sans-serif" font-size="13" lengthAdjust="spacing" textLength="165" x="127.5" y="260.5444">(textChanged/stateChanged)</text><line style="stroke:#181818;stroke-width:2.0;" x1="319.5" x2="361.5" y1="297.1553" y2="297.1553"/><line style="stroke:#181818;stroke-width:2.0;" x1="361.5" x2="361.5" y1="297.1553" y2="310.1553"/><line style="stroke:#181818;stroke-width:2.0;" x1="320.5" x2="361.5" y1="310.1553" y2="310.1553"/><polygon fill="#181818" points="330.5,306.1553,320.5,310.1553,330.5,314.1553,326.5,310.1553" style="stroke:#181818;stroke-width:1.0;"/><text fill="#000000" font-family="sans-serif" font-size="13" lengthAdjust="spacing" textLength="119" x="326.5" y="292.2988">auto_save_settings()</text><line style="stroke:#181818;stroke-width:2.0;" x1="319.5" x2="361.5" y1="341.9097" y2="341.9097"/><line style="stroke:#181818;stroke-width:2.0;" x1="361.5" x2="361.5" y1="341.9097" y2="354.9097"/><line style="stroke:#181818;stroke-width:2.0;" x1="320.5" x2="361.5" y1="354.9097" y2="354.9097"/><polygon fill="#181818" points="330.5,350.9097,320.5,354.9097,330.5,358.9097,326.5,354.9097" style="stroke:#181818;stroke-width:1.0;"/><text fill="#000000" font-family="sans-serif" font-size="13" lengthAdjust="spacing" textLength="134" x="326.5" y="337.0532">save_current_settings()</text><polygon fill="#181818" points="455.5,382.6641,465.5,386.6641,455.5,390.6641,459.5,386.6641" style="stroke:#181818;stroke-width:1.0;"/><line style="stroke:#181818;stroke-width:2.0;" x1="319.5" x2="461.5" y1="386.6641" y2="386.6641"/><text fill="#000000" font-family="sans-serif" font-size="13" lengthAdjust="spacing" textLength="127" x="326.5" y="381.8076">save_all_settings(self)</text><line style="stroke:#181818;stroke-width:2.0;" x1="477.5" x2="519.5" y1="450.4272" y2="450.4272"/><line style="stroke:#181818;stroke-width:2.0;" x1="519.5" x2="519.5" y1="450.4272" y2="463.4272"/><line style="stroke:#181818;stroke-width:2.0;" x1="478.5" x2="519.5" y1="463.4272" y2="463.4272"/><polygon fill="#181818" points="488.5,459.4272,478.5,463.4272,488.5,467.4272,484.5,463.4272" style="stroke:#181818;stroke-width:1.0;"/><text fill="#000000" font-family="sans-serif" font-size="13" lengthAdjust="spacing" textLength="78" x="484.5" y="445.5708">&#25910;&#38598;&#25152;&#26377;&#35774;&#32622;</text><path d="M574,409.6641 L574,487.6641 A10,10 0 0 0 584,497.6641 L711,497.6641 A10,10 0 0 0 721,487.6641 L721,409.6641 L711,399.6641 L584,399.6641 A10,10 0 0 0 574,409.6641 " fill="#FEFFDD" style="stroke:#181818;stroke-width:0.5;"/><path d="M711,399.6641 L711,404.6641 A5,5 0 0 0 716,409.6641 L721,409.6641 L711,399.6641 " fill="#FEFFDD" style="stroke:#181818;stroke-width:0.5;"/><text fill="#000000" font-family="sans-serif" font-size="13" lengthAdjust="spacing" textLength="102" x="580" y="419.562">&#8226; serial: &#20018;&#21475;&#21442;&#25968;</text><text fill="#000000" font-family="sans-serif" font-size="13" lengthAdjust="spacing" textLength="99" x="580" y="437.3164">&#8226; send: &#21457;&#36865;&#36873;&#39033;</text><text fill="#000000" font-family="sans-serif" font-size="13" lengthAdjust="spacing" textLength="111" x="580" y="455.0708">&#8226; receive: &#25509;&#25910;&#36873;&#39033;</text><text fill="#000000" font-family="sans-serif" font-size="13" lengthAdjust="spacing" textLength="126" x="580" y="472.8252">&#8226; flow_control: &#27969;&#25511;&#21046;</text><text fill="#000000" font-family="sans-serif" font-size="13" lengthAdjust="spacing" textLength="126" x="580" y="490.5796">&#8226; file_paths: &#25991;&#20214;&#36335;&#24452;</text><line style="stroke:#181818;stroke-width:2.0;" x1="477.5" x2="519.5" y1="527.1904" y2="527.1904"/><line style="stroke:#181818;stroke-width:2.0;" x1="519.5" x2="519.5" y1="527.1904" y2="540.1904"/><line style="stroke:#181818;stroke-width:2.0;" x1="478.5" x2="519.5" y1="540.1904" y2="540.1904"/><polygon fill="#181818" points="488.5,536.1904,478.5,540.1904,488.5,544.1904,484.5,540.1904" style="stroke:#181818;stroke-width:1.0;"/><text fill="#000000" font-family="sans-serif" font-size="13" lengthAdjust="spacing" textLength="140" x="484.5" y="522.334">save_user_settings(dict)</text><line style="stroke:#181818;stroke-width:2.0;" x1="477.5" x2="519.5" y1="571.9448" y2="571.9448"/><line style="stroke:#181818;stroke-width:2.0;" x1="519.5" x2="519.5" y1="571.9448" y2="584.9448"/><line style="stroke:#181818;stroke-width:2.0;" x1="478.5" x2="519.5" y1="584.9448" y2="584.9448"/><polygon fill="#181818" points="488.5,580.9448,478.5,584.9448,488.5,588.9448,484.5,584.9448" style="stroke:#181818;stroke-width:1.0;"/><text fill="#000000" font-family="sans-serif" font-size="13" lengthAdjust="spacing" textLength="75" x="484.5" y="567.0884">save_config()</text><line style="stroke:#181818;stroke-width:2.0;" x1="477.5" x2="519.5" y1="616.6992" y2="616.6992"/><line style="stroke:#181818;stroke-width:2.0;" x1="519.5" x2="519.5" y1="616.6992" y2="629.6992"/><line style="stroke:#181818;stroke-width:2.0;" x1="478.5" x2="519.5" y1="629.6992" y2="629.6992"/><polygon fill="#181818" points="488.5,625.6992,478.5,629.6992,488.5,633.6992,484.5,629.6992" style="stroke:#181818;stroke-width:1.0;"/><text fill="#000000" font-family="sans-serif" font-size="13" lengthAdjust="spacing" textLength="92" x="484.5" y="611.8428">&#20889;&#20837; config.json</text><path d="M588,611.4448 L588,618.4448 A10,10 0 0 0 598,628.4448 L724,628.4448 A10,10 0 0 0 734,618.4448 L734,611.4448 L724,601.4448 L598,601.4448 A10,10 0 0 0 588,611.4448 " fill="#FEFFDD" style="stroke:#181818;stroke-width:0.5;"/><path d="M724,601.4448 L724,606.4448 A5,5 0 0 0 729,611.4448 L734,611.4448 L724,601.4448 " fill="#FEFFDD" style="stroke:#181818;stroke-width:0.5;"/><text fill="#000000" font-family="sans-serif" font-size="13" lengthAdjust="spacing" textLength="125" x="594" y="621.3428">JSON&#26684;&#24335;&#20445;&#23384;&#21040;&#30913;&#30424;</text><polygon fill="#181818" points="325.5,657.4536,315.5,661.4536,325.5,665.4536,321.5,661.4536" style="stroke:#181818;stroke-width:1.0;"/><line style="stroke:#181818;stroke-width:2.0;stroke-dasharray:2.0,2.0;" x1="319.5" x2="471.5" y1="661.4536" y2="661.4536"/><text fill="#000000" font-family="sans-serif" font-size="13" lengthAdjust="spacing" textLength="52" x="331.5" y="656.5972">&#20445;&#23384;&#23436;&#25104;</text><path d="M52,684.4536 L52,727.4536 A10,10 0 0 0 62,737.4536 L529,737.4536 A10,10 0 0 0 539,727.4536 L539,684.4536 L529,674.4536 L62,674.4536 A10,10 0 0 0 52,684.4536 " fill="#FEFFDD" style="stroke:#181818;stroke-width:0.5;"/><path d="M529,674.4536 L529,679.4536 A5,5 0 0 0 534,684.4536 L539,684.4536 L529,674.4536 " fill="#FEFFDD" style="stroke:#181818;stroke-width:0.5;"/><text fill="#000000" font-family="sans-serif" font-size="13" font-weight="bold" lengthAdjust="spacing" textLength="78" x="239.25" y="694.3516">&#33258;&#21160;&#20445;&#23384;&#26426;&#21046;</text><text fill="#000000" font-family="sans-serif" font-size="13" lengthAdjust="spacing" textLength="104" x="239.25" y="712.106">&#20219;&#20309;&#35774;&#32622;&#21464;&#26356;&#37117;&#20250;</text><text fill="#000000" font-family="sans-serif" font-size="13" lengthAdjust="spacing" textLength="104" x="239.25" y="729.8604">&#33258;&#21160;&#35302;&#21457;&#20445;&#23384;&#27969;&#31243;</text><!--SRC=[TPHTJrCn6CVl-ocQNR54HJ7HP24akCI82NY1Yp4nMSfPjrKExJpjDkFLfZ0s58yceEWm4H4X9anYT0ZZvRkOqswxyYlOyp9t5l2op__Nvsd_JvyA8amCvQ4jgszb_GHU6xuUWzs5vVPnmpdz87VNrCzoU-Sv07oMq1ooq1pa-54UKmEFMnOhtiqIOvPYpk582B5OdgOCPb5imP7B8U46CcOpdXfd9hDWCKi43kat6HLJQ0x3o2GnBCPPMi3xw1OcaH2KmccKDuNBJfCd65wv2W0oX4wNuBeWuZ3INjbHrVq8q1i4CKWEKG4J4vwK8CbfR15a9YSHeVS8JR7Y83YUotcaZ-bLt4IS3p9nHjCaus6tf-zC-Sj9H546Mn40l8DS7DCrOz0vRQYLWqxZH7iAA1COMYIJ5G06YjDggNdRr_ySlTVntwLFqFdrNTgRqdwgLlU2aFoyt2tLr4QblTHKfN8GLMyMdLQpi_zDdiotTsi0qnHqgtYUa0BIzH8JG5zU7qVV9GRLosszmJdTaFR-0peay6CHpoAQmQbXBZGUBA8WXSCP-kbq5k1wr4k8ye8bEIhW9CT249hXGz41mDECl6LXAi9C3_BT2pXacds6OpCTxLVsGG02zqDRrKgpMw-eMacjrywpsdMAU_sCdMSjrwx5eBHVTqjbxN5tuo0GB6nWKi2kQrjkZR2MDbanQUXNQ36TLG-ATbPMcpsLc3YPGoBBOmCz2ZNex3Ky1_Bwe7qBKiGGqV-XXhTmhJmBoCexkR05VUJIGyveo98OT9-j-dWaZsn_q6LrhxrPRjVN-hbw_Gk0nWjLVHL-5RrsX4Bks_3Bi88UWSJ4XHu5uUZCM6VngrpQ2NwMzKFjrkZmp9Wx2gsMSxpgTqxQQwh-e_lisF6cmT_JsVwYspFm9_qpyYy0]--></g></svg>