<?xml version="1.0" encoding="us-ascii" standalone="no"?><svg xmlns="http://www.w3.org/2000/svg" xmlns:xlink="http://www.w3.org/1999/xlink" contentStyleType="text/css" height="1013px" preserveAspectRatio="none" style="width:822px;height:1013px;background:#FFFFFF;" version="1.1" viewBox="0 0 822 1013" width="822px" zoomAndPan="magnify"><defs/><g><text fill="#000000" font-family="sans-serif" font-size="14" font-weight="bold" lengthAdjust="spacing" textLength="200" x="307.25" y="31.0439">&#24207;&#21015;&#22270; 7/7: &#20851;&#38381;&#20018;&#21475;&#19982;&#36864;&#20986;&#27969;&#31243;</text><rect fill="#FFFFFF" height="31.7544" style="stroke:#181818;stroke-width:1.0;" width="10" x="128" y="202.3833"/><rect fill="#FFFFFF" height="63.5088" style="stroke:#181818;stroke-width:1.0;" width="10" x="128" y="464.6641"/><rect fill="#FFFFFF" height="31.7544" style="stroke:#181818;stroke-width:1.0;" width="10" x="128" y="605.6816"/><rect fill="#FFFFFF" height="31.7544" style="stroke:#181818;stroke-width:1.0;" width="10" x="128" y="881.9624"/><rect fill="#FFFFFF" height="294.0352" style="stroke:#181818;stroke-width:1.0;" width="10" x="302" y="234.1377"/><rect fill="#FFFFFF" height="276.2808" style="stroke:#181818;stroke-width:1.0;" width="10" x="302" y="637.436"/><rect fill="#FFFFFF" height="122.2632" style="stroke:#181818;stroke-width:1.0;" width="10" x="460" y="310.6465"/><rect fill="#FFFFFF" height="45.7544" style="stroke:#181818;stroke-width:1.0;" width="10" x="460" y="713.9448"/><rect fill="#FFFFFF" height="14" style="stroke:#181818;stroke-width:1.0;" width="10" x="577" y="342.4009"/><rect fill="#FFFFFF" height="14" style="stroke:#181818;stroke-width:1.0;" width="10" x="577" y="745.6992"/><rect fill="#FFFFFF" height="58.7544" style="stroke:#181818;stroke-width:1.0;" width="10" x="694.5" y="791.4536"/><line style="stroke:#181818;stroke-width:0.5;stroke-dasharray:5.0,5.0;" x1="21" x2="21" y1="122.8745" y2="931.7168"/><line style="stroke:#181818;stroke-width:0.5;stroke-dasharray:5.0,5.0;" x1="132.5" x2="132.5" y1="122.8745" y2="931.7168"/><line style="stroke:#181818;stroke-width:0.5;stroke-dasharray:5.0,5.0;" x1="306.5" x2="306.5" y1="122.8745" y2="931.7168"/><line style="stroke:#181818;stroke-width:0.5;stroke-dasharray:5.0,5.0;" x1="464.5" x2="464.5" y1="122.8745" y2="931.7168"/><line style="stroke:#181818;stroke-width:0.5;stroke-dasharray:5.0,5.0;" x1="581.5" x2="581.5" y1="122.8745" y2="931.7168"/><line style="stroke:#181818;stroke-width:0.5;stroke-dasharray:5.0,5.0;" x1="699.5" x2="699.5" y1="122.8745" y2="931.7168"/><text fill="#000000" font-family="sans-serif" font-size="13" lengthAdjust="spacing" textLength="26" x="5" y="120.0181">&#29992;&#25143;</text><ellipse cx="21" cy="53.6201" fill="#E2E2F0" rx="8" ry="8" style="stroke:#181818;stroke-width:0.5;"/><path d="M21,61.6201 L21,88.6201 M8,69.6201 L34,69.6201 M21,88.6201 L8,103.6201 M21,88.6201 L34,103.6201 " fill="none" style="stroke:#181818;stroke-width:0.5;"/><text fill="#000000" font-family="sans-serif" font-size="13" lengthAdjust="spacing" textLength="26" x="5" y="945.6147">&#29992;&#25143;</text><ellipse cx="21" cy="956.9712" fill="#E2E2F0" rx="8" ry="8" style="stroke:#181818;stroke-width:0.5;"/><path d="M21,964.9712 L21,991.9712 M8,972.9712 L34,972.9712 M21,991.9712 L8,1006.9712 M21,991.9712 L34,1006.9712 " fill="none" style="stroke:#181818;stroke-width:0.5;"/><rect fill="#E2E2F0" height="31.7544" rx="10" ry="10" style="stroke:#181818;stroke-width:0.5;" width="147" x="59.5" y="90.1201"/><text fill="#000000" font-family="sans-serif" font-size="13" lengthAdjust="spacing" textLength="133" x="66.5" y="112.0181">Ui_Serial_MainWindow</text><rect fill="#E2E2F0" height="31.7544" rx="10" ry="10" style="stroke:#181818;stroke-width:0.5;" width="147" x="59.5" y="930.7168"/><text fill="#000000" font-family="sans-serif" font-size="13" lengthAdjust="spacing" textLength="133" x="66.5" y="952.6147">Ui_Serial_MainWindow</text><rect fill="#E2E2F0" height="31.7544" rx="10" ry="10" style="stroke:#181818;stroke-width:0.5;" width="103" x="255.5" y="90.1201"/><text fill="#000000" font-family="sans-serif" font-size="13" lengthAdjust="spacing" textLength="89" x="262.5" y="112.0181">SerialAppClass</text><rect fill="#E2E2F0" height="31.7544" rx="10" ry="10" style="stroke:#181818;stroke-width:0.5;" width="103" x="255.5" y="930.7168"/><text fill="#000000" font-family="sans-serif" font-size="13" lengthAdjust="spacing" textLength="89" x="262.5" y="952.6147">SerialAppClass</text><rect fill="#E2E2F0" height="31.7544" rx="10" ry="10" style="stroke:#181818;stroke-width:0.5;" width="95" x="417.5" y="90.1201"/><text fill="#000000" font-family="sans-serif" font-size="13" lengthAdjust="spacing" textLength="81" x="424.5" y="112.0181">SerialProcess</text><rect fill="#E2E2F0" height="31.7544" rx="10" ry="10" style="stroke:#181818;stroke-width:0.5;" width="95" x="417.5" y="930.7168"/><text fill="#000000" font-family="sans-serif" font-size="13" lengthAdjust="spacing" textLength="81" x="424.5" y="952.6147">SerialProcess</text><rect fill="#E2E2F0" height="31.7544" rx="10" ry="10" style="stroke:#181818;stroke-width:0.5;" width="81" x="541.5" y="90.1201"/><text fill="#000000" font-family="sans-serif" font-size="13" lengthAdjust="spacing" textLength="67" x="548.5" y="112.0181">QSerialPort</text><rect fill="#E2E2F0" height="31.7544" rx="10" ry="10" style="stroke:#181818;stroke-width:0.5;" width="81" x="541.5" y="930.7168"/><text fill="#000000" font-family="sans-serif" font-size="13" lengthAdjust="spacing" textLength="67" x="548.5" y="952.6147">QSerialPort</text><rect fill="#E2E2F0" height="31.7544" rx="10" ry="10" style="stroke:#181818;stroke-width:0.5;" width="134" x="632.5" y="90.1201"/><text fill="#000000" font-family="sans-serif" font-size="13" lengthAdjust="spacing" textLength="120" x="639.5" y="112.0181">JSONConfigManager</text><rect fill="#E2E2F0" height="31.7544" rx="10" ry="10" style="stroke:#181818;stroke-width:0.5;" width="134" x="632.5" y="930.7168"/><text fill="#000000" font-family="sans-serif" font-size="13" lengthAdjust="spacing" textLength="120" x="639.5" y="952.6147">JSONConfigManager</text><rect fill="#FFFFFF" height="31.7544" style="stroke:#181818;stroke-width:1.0;" width="10" x="128" y="202.3833"/><rect fill="#FFFFFF" height="63.5088" style="stroke:#181818;stroke-width:1.0;" width="10" x="128" y="464.6641"/><rect fill="#FFFFFF" height="31.7544" style="stroke:#181818;stroke-width:1.0;" width="10" x="128" y="605.6816"/><rect fill="#FFFFFF" height="31.7544" style="stroke:#181818;stroke-width:1.0;" width="10" x="128" y="881.9624"/><rect fill="#FFFFFF" height="294.0352" style="stroke:#181818;stroke-width:1.0;" width="10" x="302" y="234.1377"/><rect fill="#FFFFFF" height="276.2808" style="stroke:#181818;stroke-width:1.0;" width="10" x="302" y="637.436"/><rect fill="#FFFFFF" height="122.2632" style="stroke:#181818;stroke-width:1.0;" width="10" x="460" y="310.6465"/><rect fill="#FFFFFF" height="45.7544" style="stroke:#181818;stroke-width:1.0;" width="10" x="460" y="713.9448"/><rect fill="#FFFFFF" height="14" style="stroke:#181818;stroke-width:1.0;" width="10" x="577" y="342.4009"/><rect fill="#FFFFFF" height="14" style="stroke:#181818;stroke-width:1.0;" width="10" x="577" y="745.6992"/><rect fill="#FFFFFF" height="58.7544" style="stroke:#181818;stroke-width:1.0;" width="10" x="694.5" y="791.4536"/><rect fill="#EEEEEE" height="3" rx="10" ry="10" style="stroke:#EEEEEE;stroke-width:1.0;" width="815.5" x="0" y="154.7517"/><line style="stroke:#000000;stroke-width:1.0;" x1="0" x2="815.5" y1="154.7517" y2="154.7517"/><line style="stroke:#000000;stroke-width:1.0;" x1="0" x2="815.5" y1="157.7517" y2="157.7517"/><rect fill="#EEEEEE" height="25.7544" rx="10" ry="10" style="stroke:#000000;stroke-width:2.0;" width="70" x="372.75" y="142.8745"/><text fill="#000000" font-family="sans-serif" font-size="13" font-weight="bold" lengthAdjust="spacing" textLength="52" x="378.75" y="161.7725">&#20851;&#38381;&#20018;&#21475;</text><polygon fill="#181818" points="116,198.3833,126,202.3833,116,206.3833,120,202.3833" style="stroke:#181818;stroke-width:1.0;"/><line style="stroke:#181818;stroke-width:2.0;" x1="21" x2="122" y1="202.3833" y2="202.3833"/><text fill="#000000" font-family="sans-serif" font-size="13" lengthAdjust="spacing" textLength="88" x="28" y="197.5269">&#28857;&#20987;"&#20851;&#38381;&#20018;&#21475;"</text><polygon fill="#181818" points="290,230.1377,300,234.1377,290,238.1377,294,234.1377" style="stroke:#181818;stroke-width:1.0;"/><line style="stroke:#181818;stroke-width:2.0;" x1="133" x2="296" y1="234.1377" y2="234.1377"/><text fill="#000000" font-family="sans-serif" font-size="13" lengthAdjust="spacing" textLength="98" x="140" y="229.2813">open_btn.clicked</text><line style="stroke:#181818;stroke-width:2.0;" x1="312" x2="354" y1="265.8921" y2="265.8921"/><line style="stroke:#181818;stroke-width:2.0;" x1="354" x2="354" y1="265.8921" y2="278.8921"/><line style="stroke:#181818;stroke-width:2.0;" x1="313" x2="354" y1="278.8921" y2="278.8921"/><polygon fill="#181818" points="323,274.8921,313,278.8921,323,282.8921,319,278.8921" style="stroke:#181818;stroke-width:1.0;"/><text fill="#000000" font-family="sans-serif" font-size="13" lengthAdjust="spacing" textLength="110" x="319" y="261.0356">toggle_serial_port()</text><polygon fill="#181818" points="448,306.6465,458,310.6465,448,314.6465,452,310.6465" style="stroke:#181818;stroke-width:1.0;"/><line style="stroke:#181818;stroke-width:2.0;" x1="312" x2="454" y1="310.6465" y2="310.6465"/><text fill="#000000" font-family="sans-serif" font-size="13" lengthAdjust="spacing" textLength="68" x="319" y="305.79">close_port()</text><polygon fill="#181818" points="565,338.4009,575,342.4009,565,346.4009,569,342.4009" style="stroke:#181818;stroke-width:1.0;"/><line style="stroke:#181818;stroke-width:2.0;" x1="470" x2="571" y1="342.4009" y2="342.4009"/><text fill="#000000" font-family="sans-serif" font-size="13" lengthAdjust="spacing" textLength="39" x="477" y="337.5444">close()</text><polygon fill="#181818" points="481,352.4009,471,356.4009,481,360.4009,477,356.4009" style="stroke:#181818;stroke-width:1.0;"/><line style="stroke:#181818;stroke-width:2.0;stroke-dasharray:2.0,2.0;" x1="475" x2="581" y1="356.4009" y2="356.4009"/><line style="stroke:#181818;stroke-width:2.0;" x1="470" x2="512" y1="388.1553" y2="388.1553"/><line style="stroke:#181818;stroke-width:2.0;" x1="512" x2="512" y1="388.1553" y2="401.1553"/><line style="stroke:#181818;stroke-width:2.0;" x1="471" x2="512" y1="401.1553" y2="401.1553"/><polygon fill="#181818" points="481,397.1553,471,401.1553,481,405.1553,477,401.1553" style="stroke:#181818;stroke-width:1.0;"/><text fill="#000000" font-family="sans-serif" font-size="13" lengthAdjust="spacing" textLength="93" x="477" y="383.2988">is_open = False</text><polygon fill="#FFA500" points="323,428.9097,313,432.9097,323,436.9097,319,432.9097" style="stroke:#FFA500;stroke-width:1.0;"/><line style="stroke:#FFA500;stroke-width:2.0;stroke-dasharray:2.0,2.0;" x1="317" x2="464" y1="432.9097" y2="432.9097"/><text fill="#000000" font-family="sans-serif" font-size="13" lengthAdjust="spacing" textLength="97" x="329" y="428.0532">port_closed &#20449;&#21495;</text><polygon fill="#181818" points="149,460.6641,139,464.6641,149,468.6641,145,464.6641" style="stroke:#181818;stroke-width:1.0;"/><line style="stroke:#181818;stroke-width:2.0;" x1="143" x2="301" y1="464.6641" y2="464.6641"/><text fill="#000000" font-family="sans-serif" font-size="13" lengthAdjust="spacing" textLength="78" x="155" y="459.8076">&#26356;&#26032;&#25353;&#38062;&#25991;&#26412;</text><polygon fill="#181818" points="149,492.4185,139,496.4185,149,500.4185,145,496.4185" style="stroke:#181818;stroke-width:1.0;"/><line style="stroke:#181818;stroke-width:2.0;" x1="143" x2="301" y1="496.4185" y2="496.4185"/><text fill="#000000" font-family="sans-serif" font-size="13" lengthAdjust="spacing" textLength="140" x="155" y="491.562">&#29366;&#24577;&#26639;&#26174;&#31034;"&#20018;&#21475;&#24050;&#20851;&#38381;"</text><polygon fill="#181818" points="32,524.1729,22,528.1729,32,532.1729,28,528.1729" style="stroke:#181818;stroke-width:1.0;"/><line style="stroke:#181818;stroke-width:2.0;stroke-dasharray:2.0,2.0;" x1="26" x2="132" y1="528.1729" y2="528.1729"/><text fill="#000000" font-family="sans-serif" font-size="13" lengthAdjust="spacing" textLength="78" x="38" y="523.3164">&#26174;&#31034;&#20851;&#38381;&#25552;&#31034;</text><rect fill="#EEEEEE" height="3" rx="10" ry="10" style="stroke:#EEEEEE;stroke-width:1.0;" width="815.5" x="0" y="558.05"/><line style="stroke:#000000;stroke-width:1.0;" x1="0" x2="815.5" y1="558.05" y2="558.05"/><line style="stroke:#000000;stroke-width:1.0;" x1="0" x2="815.5" y1="561.05" y2="561.05"/><rect fill="#EEEEEE" height="25.7544" rx="10" ry="10" style="stroke:#000000;stroke-width:2.0;" width="70" x="372.75" y="546.1729"/><text fill="#000000" font-family="sans-serif" font-size="13" font-weight="bold" lengthAdjust="spacing" textLength="52" x="378.75" y="565.0708">&#36864;&#20986;&#24212;&#29992;</text><polygon fill="#181818" points="116,601.6816,126,605.6816,116,609.6816,120,605.6816" style="stroke:#181818;stroke-width:1.0;"/><line style="stroke:#181818;stroke-width:2.0;" x1="21" x2="122" y1="605.6816" y2="605.6816"/><text fill="#000000" font-family="sans-serif" font-size="13" lengthAdjust="spacing" textLength="52" x="28" y="600.8252">&#20851;&#38381;&#31383;&#21475;</text><polygon fill="#181818" points="290,633.436,300,637.436,290,641.436,294,637.436" style="stroke:#181818;stroke-width:1.0;"/><line style="stroke:#181818;stroke-width:2.0;" x1="133" x2="296" y1="637.436" y2="637.436"/><text fill="#000000" font-family="sans-serif" font-size="13" lengthAdjust="spacing" textLength="71" x="140" y="632.5796">closeEvent()</text><line style="stroke:#181818;stroke-width:2.0;" x1="312" x2="354" y1="669.1904" y2="669.1904"/><line style="stroke:#181818;stroke-width:2.0;" x1="354" x2="354" y1="669.1904" y2="682.1904"/><line style="stroke:#181818;stroke-width:2.0;" x1="313" x2="354" y1="682.1904" y2="682.1904"/><polygon fill="#181818" points="323,678.1904,313,682.1904,323,686.1904,319,682.1904" style="stroke:#181818;stroke-width:1.0;"/><text fill="#000000" font-family="sans-serif" font-size="13" lengthAdjust="spacing" textLength="134" x="319" y="664.334">save_current_settings()</text><path d="M465,663.936 L465,670.936 A10,10 0 0 0 475,680.936 L580,680.936 A10,10 0 0 0 590,670.936 L590,663.936 L580,653.936 L475,653.936 A10,10 0 0 0 465,663.936 " fill="#FEFFDD" style="stroke:#181818;stroke-width:0.5;"/><path d="M580,653.936 L580,658.936 A5,5 0 0 0 585,663.936 L590,663.936 L580,653.936 " fill="#FEFFDD" style="stroke:#181818;stroke-width:0.5;"/><text fill="#000000" font-family="sans-serif" font-size="13" lengthAdjust="spacing" textLength="104" x="471" y="673.834">&#26368;&#21518;&#19968;&#27425;&#20445;&#23384;&#37197;&#32622;</text><polygon fill="#181818" points="448,709.9448,458,713.9448,448,717.9448,452,713.9448" style="stroke:#181818;stroke-width:1.0;"/><line style="stroke:#181818;stroke-width:2.0;" x1="312" x2="454" y1="713.9448" y2="713.9448"/><text fill="#000000" font-family="sans-serif" font-size="13" lengthAdjust="spacing" textLength="68" x="319" y="709.0884">close_port()</text><polygon fill="#181818" points="565,741.6992,575,745.6992,565,749.6992,569,745.6992" style="stroke:#181818;stroke-width:1.0;"/><line style="stroke:#181818;stroke-width:2.0;" x1="470" x2="571" y1="745.6992" y2="745.6992"/><text fill="#000000" font-family="sans-serif" font-size="13" lengthAdjust="spacing" textLength="39" x="477" y="740.8428">close()</text><polygon fill="#181818" points="476,755.6992,466,759.6992,476,763.6992,472,759.6992" style="stroke:#181818;stroke-width:1.0;"/><line style="stroke:#181818;stroke-width:2.0;stroke-dasharray:2.0,2.0;" x1="470" x2="581" y1="759.6992" y2="759.6992"/><polygon fill="#181818" points="682.5,787.4536,692.5,791.4536,682.5,795.4536,686.5,791.4536" style="stroke:#181818;stroke-width:1.0;"/><line style="stroke:#181818;stroke-width:2.0;" x1="312" x2="688.5" y1="791.4536" y2="791.4536"/><text fill="#000000" font-family="sans-serif" font-size="13" lengthAdjust="spacing" textLength="75" x="319" y="786.5972">save_config()</text><line style="stroke:#181818;stroke-width:2.0;" x1="704.5" x2="746.5" y1="823.208" y2="823.208"/><line style="stroke:#181818;stroke-width:2.0;" x1="746.5" x2="746.5" y1="823.208" y2="836.208"/><line style="stroke:#181818;stroke-width:2.0;" x1="705.5" x2="746.5" y1="836.208" y2="836.208"/><polygon fill="#181818" points="715.5,832.208,705.5,836.208,715.5,840.208,711.5,836.208" style="stroke:#181818;stroke-width:1.0;"/><text fill="#000000" font-family="sans-serif" font-size="13" lengthAdjust="spacing" textLength="92" x="711.5" y="818.3516">&#20889;&#20837; config.json</text><polygon fill="#181818" points="323,846.208,313,850.208,323,854.208,319,850.208" style="stroke:#181818;stroke-width:1.0;"/><line style="stroke:#181818;stroke-width:2.0;stroke-dasharray:2.0,2.0;" x1="317" x2="698.5" y1="850.208" y2="850.208"/><polygon fill="#181818" points="149,877.9624,139,881.9624,149,885.9624,145,881.9624" style="stroke:#181818;stroke-width:1.0;"/><line style="stroke:#181818;stroke-width:2.0;stroke-dasharray:2.0,2.0;" x1="143" x2="301" y1="881.9624" y2="881.9624"/><text fill="#000000" font-family="sans-serif" font-size="13" lengthAdjust="spacing" textLength="52" x="155" y="877.106">&#20801;&#35768;&#20851;&#38381;</text><polygon fill="#181818" points="32,909.7168,22,913.7168,32,917.7168,28,913.7168" style="stroke:#181818;stroke-width:1.0;"/><line style="stroke:#181818;stroke-width:2.0;stroke-dasharray:2.0,2.0;" x1="26" x2="132" y1="913.7168" y2="913.7168"/><text fill="#000000" font-family="sans-serif" font-size="13" lengthAdjust="spacing" textLength="52" x="38" y="908.8604">&#24212;&#29992;&#36864;&#20986;</text><!--SRC=[hPDjIrH15CVVpwSORc_gXMP620iRcBHKe1csH4HSfhlZTV8wiytCAlHg3KnxSYL43GsI2YHKmXxSDj8lipEt_HRDlRDtcrMaWjxTkUTtpfd_-P-HH4OOgaPDBQogzGCuS7OW1zNSfzRgJhE-fsflc_N5LhMgvXlwosoyzGm0CKbe6N4q1GL-KC4qm8ESivcR4oIOf5W8sEyWd5LeAM2SOWxx-vp09HHCXcbqY4MCmva98h4JBp0gHz0KXjum2JWJR5p2s-WA9fu3bV0ugaGoOSV8GmpFdGS01TAKAmhJ40denSjRUc7V0oP1ae2K4PMmU3KD5Oa_XZb1aJ-C2Br5Q8dDT8E3vN9AMioSXY8aH3TZOmusobc0ZrAZZCkKkT66pBcR669qd8GfSsti-eWz3YEAGimz0FBvBbTWFWz0AhBdej6JW_6ZRsh-k-SoNZ8BCeqaDWGmeWrgDEGWAsFgtvEqDuYCPxW4IjWbVwSP6YGpo18b2yC8-y9EhMmqd3u3Ci8Aoy4WOW9dmKuf6mMWFIx39oDeqowO_0Rfk7gSekuLKy8fb354-8aoc8S550dS8UwSAXG6B_JrtSra97VpqyObs3pSLBLzjtnsqxQiPBXw_RDU-QYVFscztDKhytfZkskq3Xa__Qghi_fDJQyTnEyQddL2xUzPOxpKXeGrCpHrKyY6T6t9V1-rmZacPYHhO5-ZQYoRrJws1hPM_67LT3t9_bJvvMbC4uF-rdg1fh4VL3WtQMO1f2Gq52QVCWDp4auOB_L6LIqjDkjLlRtPF7ojTjPQSo_Y7xl_jYB_QqDEjjI-hKnJUd3hsp1eFqY7LuzVgRdtq6RqtXUCTg1iJ6xNTXtRjUFFxC_TkdNfc3-TlR3cMgF_i16_0000]--></g></svg>