<?xml version="1.0" encoding="us-ascii" standalone="no"?><svg xmlns="http://www.w3.org/2000/svg" xmlns:xlink="http://www.w3.org/1999/xlink" contentStyleType="text/css" height="927px" preserveAspectRatio="none" style="width:860px;height:927px;background:#FFFFFF;" version="1.1" viewBox="0 0 860 927" width="860px" zoomAndPan="magnify"><defs/><g><!--class QObject--><g id="elem_QObject"><rect codeLine="21" fill="#E8F5E9" height="63.5977" id="QObject" rx="2.5" ry="2.5" style="stroke:#4CAF50;stroke-width:0.5;" width="85" x="565.5" y="7"/><ellipse cx="579.5" cy="30.7988" fill="#ADD1B2" rx="10" ry="10" style="stroke:#181818;stroke-width:1.0;"/><path d="M579.5625,35.6895 Q577.8906,35.6895 576.9063,34.4551 Q575.9375,33.2051 575.9375,30.6426 Q575.9375,28.4707 576.9688,27.0176 Q578,25.5488 579.7813,25.5488 Q580.1875,25.5488 580.6406,25.6738 Q580.9844,25.8301 581.2031,25.8301 Q581.3594,25.8301 581.4219,25.8145 Q581.5,25.7832 581.9375,25.0957 L582.625,28.4238 L581.7813,28.7051 Q581.3906,27.4707 580.9063,26.9863 Q580.4375,26.502 579.6719,26.502 Q578.6875,26.502 578.1094,27.6582 Q577.5469,28.7988 577.5469,30.5957 Q577.5469,32.5488 578.0313,33.5957 Q578.5313,34.627 579.6094,34.627 Q580.375,34.627 580.9219,34.0801 Q581.4844,33.5176 581.7656,32.1895 L582.625,32.6426 Q582.2656,34.0645 581.4688,34.877 Q580.6719,35.6895 579.5625,35.6895 Z " fill="#000000"/><text fill="#000000" font-family="sans-serif" font-size="14" font-style="italic" lengthAdjust="spacing" textLength="55" x="592.5" y="28.0439">&#171;PyQt5&#187;</text><text fill="#000000" font-family="Microsoft YaHei" font-size="14" lengthAdjust="spacing" textLength="55" x="592.5" y="45.9336">QObject</text><line style="stroke:#4CAF50;stroke-width:0.5;" x1="566.5" x2="649.5" y1="54.5977" y2="54.5977"/><line style="stroke:#4CAF50;stroke-width:0.5;" x1="566.5" x2="649.5" y1="62.5977" y2="62.5977"/></g><!--class QMainWindow--><g id="elem_QMainWindow"><rect codeLine="22" fill="#E8F5E9" height="63.5977" id="QMainWindow" rx="2.5" ry="2.5" style="stroke:#4CAF50;stroke-width:0.5;" width="132" x="348" y="257"/><ellipse cx="362" cy="280.7988" fill="#ADD1B2" rx="10" ry="10" style="stroke:#181818;stroke-width:1.0;"/><path d="M362.0625,285.6895 Q360.3906,285.6895 359.4063,284.4551 Q358.4375,283.2051 358.4375,280.6426 Q358.4375,278.4707 359.4688,277.0176 Q360.5,275.5488 362.2813,275.5488 Q362.6875,275.5488 363.1406,275.6738 Q363.4844,275.8301 363.7031,275.8301 Q363.8594,275.8301 363.9219,275.8145 Q364,275.7832 364.4375,275.0957 L365.125,278.4238 L364.2813,278.7051 Q363.8906,277.4707 363.4063,276.9863 Q362.9375,276.502 362.1719,276.502 Q361.1875,276.502 360.6094,277.6582 Q360.0469,278.7988 360.0469,280.5957 Q360.0469,282.5488 360.5313,283.5957 Q361.0313,284.627 362.1094,284.627 Q362.875,284.627 363.4219,284.0801 Q363.9844,283.5176 364.2656,282.1895 L365.125,282.6426 Q364.7656,284.0645 363.9688,284.877 Q363.1719,285.6895 362.0625,285.6895 Z " fill="#000000"/><text fill="#000000" font-family="sans-serif" font-size="14" font-style="italic" lengthAdjust="spacing" textLength="55" x="398.5" y="278.0439">&#171;PyQt5&#187;</text><text fill="#000000" font-family="Microsoft YaHei" font-size="14" lengthAdjust="spacing" textLength="102" x="375" y="295.9336">QMainWindow</text><line style="stroke:#4CAF50;stroke-width:0.5;" x1="349" x2="479" y1="304.5977" y2="304.5977"/><line style="stroke:#4CAF50;stroke-width:0.5;" x1="349" x2="479" y1="312.5977" y2="312.5977"/></g><!--class QSerialPort--><g id="elem_QSerialPort"><rect codeLine="23" fill="#E8F5E9" height="140.0781" id="QSerialPort" rx="2.5" ry="2.5" style="stroke:#4CAF50;stroke-width:0.5;" width="106" x="747" y="554.5"/><ellipse cx="761" cy="578.2988" fill="#ADD1B2" rx="10" ry="10" style="stroke:#181818;stroke-width:1.0;"/><path d="M761.0625,583.1895 Q759.3906,583.1895 758.4063,581.9551 Q757.4375,580.7051 757.4375,578.1426 Q757.4375,575.9707 758.4688,574.5176 Q759.5,573.0488 761.2813,573.0488 Q761.6875,573.0488 762.1406,573.1738 Q762.4844,573.3301 762.7031,573.3301 Q762.8594,573.3301 762.9219,573.3145 Q763,573.2832 763.4375,572.5957 L764.125,575.9238 L763.2813,576.2051 Q762.8906,574.9707 762.4063,574.4863 Q761.9375,574.002 761.1719,574.002 Q760.1875,574.002 759.6094,575.1582 Q759.0469,576.2988 759.0469,578.0957 Q759.0469,580.0488 759.5313,581.0957 Q760.0313,582.127 761.1094,582.127 Q761.875,582.127 762.4219,581.5801 Q762.9844,581.0176 763.2656,579.6895 L764.125,580.1426 Q763.7656,581.5645 762.9688,582.377 Q762.1719,583.1895 761.0625,583.1895 Z " fill="#000000"/><text fill="#000000" font-family="sans-serif" font-size="14" font-style="italic" lengthAdjust="spacing" textLength="55" x="784.5" y="575.5439">&#171;PyQt5&#187;</text><text fill="#000000" font-family="Microsoft YaHei" font-size="14" lengthAdjust="spacing" textLength="76" x="774" y="593.4336">QSerialPort</text><line style="stroke:#4CAF50;stroke-width:0.5;" x1="748" x2="852" y1="602.0977" y2="602.0977"/><line style="stroke:#4CAF50;stroke-width:0.5;" x1="748" x2="852" y1="610.0977" y2="610.0977"/><text fill="#000000" font-family="sans-serif" font-size="14" lengthAdjust="spacing" textLength="50" x="753" y="630.1416">+open()</text><text fill="#000000" font-family="sans-serif" font-size="14" lengthAdjust="spacing" textLength="51" x="753" y="649.2617">+close()</text><text fill="#000000" font-family="sans-serif" font-size="14" lengthAdjust="spacing" textLength="47" x="753" y="668.3818">+write()</text><text fill="#000000" font-family="sans-serif" font-size="14" lengthAdjust="spacing" textLength="62" x="753" y="687.502">+readAll()</text></g><!--class SerialProcess--><g id="elem_SerialProcess"><rect codeLine="31" fill="#E3F2FD" height="313.6816" id="SerialProcess" rx="2.5" ry="2.5" style="stroke:#2196F3;stroke-width:0.5;" width="132" x="542" y="132"/><ellipse cx="562.75" cy="147" fill="#ADD1B2" rx="10" ry="10" style="stroke:#181818;stroke-width:1.0;"/><path d="M562.8125,151.8906 Q561.1406,151.8906 560.1563,150.6563 Q559.1875,149.4063 559.1875,146.8438 Q559.1875,144.6719 560.2188,143.2188 Q561.25,141.75 563.0313,141.75 Q563.4375,141.75 563.8906,141.875 Q564.2344,142.0313 564.4531,142.0313 Q564.6094,142.0313 564.6719,142.0156 Q564.75,141.9844 565.1875,141.2969 L565.875,144.625 L565.0313,144.9063 Q564.6406,143.6719 564.1563,143.1875 Q563.6875,142.7031 562.9219,142.7031 Q561.9375,142.7031 561.3594,143.8594 Q560.7969,145 560.7969,146.7969 Q560.7969,148.75 561.2813,149.7969 Q561.7813,150.8281 562.8594,150.8281 Q563.625,150.8281 564.1719,150.2813 Q564.7344,149.7188 565.0156,148.3906 L565.875,148.8438 Q565.5156,150.2656 564.7188,151.0781 Q563.9219,151.8906 562.8125,151.8906 Z " fill="#000000"/><text fill="#000000" font-family="Microsoft YaHei" font-size="14" lengthAdjust="spacing" textLength="87" x="577.25" y="152.5747">SerialProcess</text><line style="stroke:#2196F3;stroke-width:0.5;" x1="543" x2="673" y1="162" y2="162"/><text fill="#000000" font-family="sans-serif" font-size="14" lengthAdjust="spacing" textLength="120" x="548" y="182.0439">-serial: QSerialPort</text><text fill="#000000" font-family="sans-serif" font-size="14" lengthAdjust="spacing" textLength="90" x="548" y="201.1641">-is_open: bool</text><text fill="#000000" font-family="sans-serif" font-size="14" lengthAdjust="spacing" textLength="117" x="548" y="220.2842">-receive_count: int</text><text fill="#000000" font-family="sans-serif" font-size="14" lengthAdjust="spacing" textLength="102" x="548" y="239.4043">-send_count: int</text><text fill="#000000" font-family="sans-serif" font-size="14" lengthAdjust="spacing" textLength="98" x="548" y="281.6445">+data_received</text><text fill="#000000" font-family="sans-serif" font-size="14" lengthAdjust="spacing" textLength="89" x="548" y="300.7646">+port_opened</text><text fill="#000000" font-family="sans-serif" font-size="14" lengthAdjust="spacing" textLength="82" x="548" y="319.8848">+port_closed</text><text fill="#000000" font-family="sans-serif" font-size="14" lengthAdjust="spacing" textLength="103" x="548" y="339.0049">+error_occurred</text><line style="stroke:#2196F3;stroke-width:1.0;stroke-dasharray:1.0,2.0;" x1="543" x2="594" y1="256.0405" y2="256.0405"/><text fill="#000000" font-family="sans-serif" font-size="14" lengthAdjust="spacing" textLength="28" x="594" y="262.0244">&#20449;&#21495;</text><line style="stroke:#2196F3;stroke-width:1.0;stroke-dasharray:1.0,2.0;" x1="622" x2="673" y1="256.0405" y2="256.0405"/><text fill="#000000" font-family="sans-serif" font-size="14" lengthAdjust="spacing" textLength="118" x="548" y="381.2451">+open_port(): bool</text><text fill="#000000" font-family="sans-serif" font-size="14" lengthAdjust="spacing" textLength="84" x="548" y="400.3652">+close_port()</text><text fill="#000000" font-family="sans-serif" font-size="14" lengthAdjust="spacing" textLength="120" x="548" y="419.4854">+send_data(): bool</text><text fill="#000000" font-family="sans-serif" font-size="14" lengthAdjust="spacing" textLength="83" x="548" y="438.6055">+read_data()</text><line style="stroke:#2196F3;stroke-width:1.0;stroke-dasharray:1.0,2.0;" x1="543" x2="580" y1="355.6411" y2="355.6411"/><text fill="#000000" font-family="sans-serif" font-size="14" lengthAdjust="spacing" textLength="56" x="580" y="361.625">&#20851;&#38190;&#26041;&#27861;</text><line style="stroke:#2196F3;stroke-width:1.0;stroke-dasharray:1.0,2.0;" x1="636" x2="673" y1="355.6411" y2="355.6411"/></g><!--class SerialAppClass--><g id="elem_SerialAppClass"><rect codeLine="48" fill="#E3F2FD" height="194.9609" id="SerialAppClass" rx="2.5" ry="2.5" style="stroke:#2196F3;stroke-width:0.5;" width="259" x="284.5" y="527"/><ellipse cx="361" cy="542" fill="#ADD1B2" rx="10" ry="10" style="stroke:#181818;stroke-width:1.0;"/><path d="M361.0625,546.8906 Q359.3906,546.8906 358.4063,545.6563 Q357.4375,544.4063 357.4375,541.8438 Q357.4375,539.6719 358.4688,538.2188 Q359.5,536.75 361.2813,536.75 Q361.6875,536.75 362.1406,536.875 Q362.4844,537.0313 362.7031,537.0313 Q362.8594,537.0313 362.9219,537.0156 Q363,536.9844 363.4375,536.2969 L364.125,539.625 L363.2813,539.9063 Q362.8906,538.6719 362.4063,538.1875 Q361.9375,537.7031 361.1719,537.7031 Q360.1875,537.7031 359.6094,538.8594 Q359.0469,540 359.0469,541.7969 Q359.0469,543.75 359.5313,544.7969 Q360.0313,545.8281 361.1094,545.8281 Q361.875,545.8281 362.4219,545.2813 Q362.9844,544.7188 363.2656,543.3906 L364.125,543.8438 Q363.7656,545.2656 362.9688,546.0781 Q362.1719,546.8906 361.0625,546.8906 Z " fill="#000000"/><text fill="#000000" font-family="Microsoft YaHei" font-size="14" lengthAdjust="spacing" textLength="98" x="380" y="547.5747">SerialAppClass</text><line style="stroke:#2196F3;stroke-width:0.5;" x1="285.5" x2="542.5" y1="557" y2="557"/><text fill="#000000" font-family="sans-serif" font-size="14" lengthAdjust="spacing" textLength="167" x="290.5" y="577.0439">-ui: Ui_Serial_MainWindow</text><text fill="#000000" font-family="sans-serif" font-size="14" lengthAdjust="spacing" textLength="247" x="290.5" y="596.1641">-config_manager: JSONConfigManager</text><text fill="#000000" font-family="sans-serif" font-size="14" lengthAdjust="spacing" textLength="192" x="290.5" y="615.2842">-serial_process: SerialProcess</text><text fill="#000000" font-family="sans-serif" font-size="14" lengthAdjust="spacing" textLength="132" x="290.5" y="657.5244">+toggle_serial_port()</text><text fill="#000000" font-family="sans-serif" font-size="14" lengthAdjust="spacing" textLength="132" x="290.5" y="676.6445">+on_data_received()</text><text fill="#000000" font-family="sans-serif" font-size="14" lengthAdjust="spacing" textLength="85" x="290.5" y="695.7646">+send_data()</text><text fill="#000000" font-family="sans-serif" font-size="14" lengthAdjust="spacing" textLength="141" x="290.5" y="714.8848">+auto_save_settings()</text><line style="stroke:#2196F3;stroke-width:1.0;stroke-dasharray:1.0,2.0;" x1="285.5" x2="386" y1="631.9204" y2="631.9204"/><text fill="#000000" font-family="sans-serif" font-size="14" lengthAdjust="spacing" textLength="56" x="386" y="637.9043">&#26680;&#24515;&#26041;&#27861;</text><line style="stroke:#2196F3;stroke-width:1.0;stroke-dasharray:1.0,2.0;" x1="442" x2="542.5" y1="631.9204" y2="631.9204"/></g><!--class JSONConfigManager--><g id="elem_JSONConfigManager"><rect codeLine="59" fill="#E3F2FD" height="137.6006" id="JSONConfigManager" rx="2.5" ry="2.5" style="stroke:#2196F3;stroke-width:0.5;" width="172" x="7" y="783"/><ellipse cx="21" cy="798" fill="#ADD1B2" rx="10" ry="10" style="stroke:#181818;stroke-width:1.0;"/><path d="M21.0625,802.8906 Q19.3906,802.8906 18.4063,801.6563 Q17.4375,800.4063 17.4375,797.8438 Q17.4375,795.6719 18.4688,794.2188 Q19.5,792.75 21.2813,792.75 Q21.6875,792.75 22.1406,792.875 Q22.4844,793.0313 22.7031,793.0313 Q22.8594,793.0313 22.9219,793.0156 Q23,792.9844 23.4375,792.2969 L24.125,795.625 L23.2813,795.9063 Q22.8906,794.6719 22.4063,794.1875 Q21.9375,793.7031 21.1719,793.7031 Q20.1875,793.7031 19.6094,794.8594 Q19.0469,796 19.0469,797.7969 Q19.0469,799.75 19.5313,800.7969 Q20.0313,801.8281 21.1094,801.8281 Q21.875,801.8281 22.4219,801.2813 Q22.9844,800.7188 23.2656,799.3906 L24.125,799.8438 Q23.7656,801.2656 22.9688,802.0781 Q22.1719,802.8906 21.0625,802.8906 Z " fill="#000000"/><text fill="#000000" font-family="Microsoft YaHei" font-size="14" lengthAdjust="spacing" textLength="142" x="34" y="803.5747">JSONConfigManager</text><line style="stroke:#2196F3;stroke-width:0.5;" x1="8" x2="178" y1="813" y2="813"/><text fill="#000000" font-family="sans-serif" font-size="14" lengthAdjust="spacing" textLength="73" x="13" y="833.0439">-config: dict</text><text fill="#000000" font-family="sans-serif" font-size="14" lengthAdjust="spacing" textLength="127" x="13" y="875.2842">+save_all_settings()</text><text fill="#000000" font-family="sans-serif" font-size="14" lengthAdjust="spacing" textLength="138" x="13" y="894.4043">+load_user_settings()</text><text fill="#000000" font-family="sans-serif" font-size="14" lengthAdjust="spacing" textLength="94" x="13" y="913.5244">+save_config()</text><line style="stroke:#2196F3;stroke-width:1.0;stroke-dasharray:1.0,2.0;" x1="8" x2="65" y1="849.6802" y2="849.6802"/><text fill="#000000" font-family="sans-serif" font-size="14" lengthAdjust="spacing" textLength="56" x="65" y="855.6641">&#26680;&#24515;&#26041;&#27861;</text><line style="stroke:#2196F3;stroke-width:1.0;stroke-dasharray:1.0,2.0;" x1="121" x2="178" y1="849.6802" y2="849.6802"/></g><!--class Ui_Serial_MainWindow--><g id="elem_Ui_Serial_MainWindow"><rect codeLine="67" fill="#E3F2FD" height="99.3604" id="Ui_Serial_MainWindow" rx="2.5" ry="2.5" style="stroke:#2196F3;stroke-width:0.5;" width="184" x="214" y="802.5"/><ellipse cx="228" cy="817.5" fill="#ADD1B2" rx="10" ry="10" style="stroke:#181818;stroke-width:1.0;"/><path d="M228.0625,822.3906 Q226.3906,822.3906 225.4063,821.1563 Q224.4375,819.9063 224.4375,817.3438 Q224.4375,815.1719 225.4688,813.7188 Q226.5,812.25 228.2813,812.25 Q228.6875,812.25 229.1406,812.375 Q229.4844,812.5313 229.7031,812.5313 Q229.8594,812.5313 229.9219,812.5156 Q230,812.4844 230.4375,811.7969 L231.125,815.125 L230.2813,815.4063 Q229.8906,814.1719 229.4063,813.6875 Q228.9375,813.2031 228.1719,813.2031 Q227.1875,813.2031 226.6094,814.3594 Q226.0469,815.5 226.0469,817.2969 Q226.0469,819.25 226.5313,820.2969 Q227.0313,821.3281 228.1094,821.3281 Q228.875,821.3281 229.4219,820.7813 Q229.9844,820.2188 230.2656,818.8906 L231.125,819.3438 Q230.7656,820.7656 229.9688,821.5781 Q229.1719,822.3906 228.0625,822.3906 Z " fill="#000000"/><text fill="#000000" font-family="Microsoft YaHei" font-size="14" lengthAdjust="spacing" textLength="154" x="241" y="823.0747">Ui_Serial_MainWindow</text><line style="stroke:#2196F3;stroke-width:0.5;" x1="215" x2="397" y1="832.5" y2="832.5"/><text fill="#000000" font-family="sans-serif" font-size="14" lengthAdjust="spacing" textLength="76" x="220" y="852.5439">+&#21508;&#31181;UI&#25511;&#20214;</text><text fill="#000000" font-family="sans-serif" font-size="14" lengthAdjust="spacing" textLength="65" x="220" y="894.7842">+setupUi()</text><line style="stroke:#2196F3;stroke-width:1.0;stroke-dasharray:1.0,2.0;" x1="215" x2="292" y1="869.1802" y2="869.1802"/><text fill="#000000" font-family="sans-serif" font-size="14" lengthAdjust="spacing" textLength="28" x="292" y="875.1641">&#26041;&#27861;</text><line style="stroke:#2196F3;stroke-width:1.0;stroke-dasharray:1.0,2.0;" x1="320" x2="397" y1="869.1802" y2="869.1802"/></g><!--class WindowManagerClass--><g id="elem_WindowManagerClass"><rect codeLine="73" fill="#FFF3E0" height="82.7178" id="WindowManagerClass" rx="2.5" ry="2.5" style="stroke:#FF9800;stroke-width:0.5;" width="180" x="433" y="810.5"/><ellipse cx="447" cy="834.2988" fill="#ADD1B2" rx="10" ry="10" style="stroke:#181818;stroke-width:1.0;"/><path d="M447.0625,839.1895 Q445.3906,839.1895 444.4063,837.9551 Q443.4375,836.7051 443.4375,834.1426 Q443.4375,831.9707 444.4688,830.5176 Q445.5,829.0488 447.2813,829.0488 Q447.6875,829.0488 448.1406,829.1738 Q448.4844,829.3301 448.7031,829.3301 Q448.8594,829.3301 448.9219,829.3145 Q449,829.2832 449.4375,828.5957 L450.125,831.9238 L449.2813,832.2051 Q448.8906,830.9707 448.4063,830.4863 Q447.9375,830.002 447.1719,830.002 Q446.1875,830.002 445.6094,831.1582 Q445.0469,832.2988 445.0469,834.0957 Q445.0469,836.0488 445.5313,837.0957 Q446.0313,838.127 447.1094,838.127 Q447.875,838.127 448.4219,837.5801 Q448.9844,837.0176 449.2656,835.6895 L450.125,836.1426 Q449.7656,837.5645 448.9688,838.377 Q448.1719,839.1895 447.0625,839.1895 Z " fill="#000000"/><text fill="#000000" font-family="sans-serif" font-size="14" font-style="italic" lengthAdjust="spacing" textLength="67" x="501.5" y="831.5439">&#171;External&#187;</text><text fill="#000000" font-family="Microsoft YaHei" font-size="14" lengthAdjust="spacing" textLength="150" x="460" y="849.4336">WindowManagerClass</text><line style="stroke:#FF9800;stroke-width:0.5;" x1="434" x2="612" y1="858.0977" y2="858.0977"/><text fill="#000000" font-family="sans-serif" font-size="14" lengthAdjust="spacing" textLength="12" x="439" y="878.1416">...</text><line style="stroke:#FF9800;stroke-width:0.5;" x1="434" x2="612" y1="885.2178" y2="885.2178"/></g><g id="elem_GMN18"><path d="M578.5,600.5 L578.5,648.7402 A0,0 0 0 0 578.5,648.7402 L711.5,648.7402 A0,0 0 0 0 711.5,648.7402 L711.5,610.5 L701.5,600.5 L646.43,600.5 L625.31,446.01 L638.43,600.5 L578.5,600.5 A0,0 0 0 0 578.5,600.5 " fill="#FEFFDD" style="stroke:#181818;stroke-width:0.5;"/><path d="M701.5,600.5 L701.5,610.5 L711.5,610.5 L701.5,600.5 " fill="#FEFFDD" style="stroke:#181818;stroke-width:0.5;"/><text fill="#000000" font-family="sans-serif" font-size="14" font-weight="bold" lengthAdjust="spacing" textLength="84" x="584.5" y="621.5439">&#20018;&#21475;&#24213;&#23618;&#22788;&#29702;</text><text fill="#000000" font-family="sans-serif" font-size="14" lengthAdjust="spacing" textLength="112" x="584.5" y="640.6641">&#36890;&#36807;&#20449;&#21495;&#21457;&#36865;&#25968;&#25454;</text></g><g id="elem_GMN21"><path d="M648.5,828 L648.5,876.2402 L751.5,876.2402 L751.5,838 L741.5,828 L648.5,828 " fill="#FEFFDD" style="stroke:#181818;stroke-width:0.5;"/><path d="M741.5,828 L741.5,838 L751.5,838 L741.5,828 " fill="#FEFFDD" style="stroke:#181818;stroke-width:1.0;"/><text fill="#000000" font-family="sans-serif" font-size="14" font-weight="bold" lengthAdjust="spacing" textLength="70" x="654.5" y="849.0439">&#24212;&#29992;&#20027;&#36923;&#36753;</text><text fill="#000000" font-family="sans-serif" font-size="14" lengthAdjust="spacing" textLength="82" x="654.5" y="868.1641">&#36830;&#25509;UI&#21644;&#20018;&#21475;</text></g><!--reverse link QObject to SerialProcess--><g id="link_QObject_SerialProcess"><path codeLine="78" d="M608,89.16 C608,105.48 608,108.84 608,131.77 " fill="none" id="QObject-backto-SerialProcess" style="stroke:#455A64;stroke-width:1.0;"/><polygon fill="none" points="608,71.16,602,89.16,614,89.16,608,71.16" style="stroke:#455A64;stroke-width:1.0;"/></g><!--reverse link QMainWindow to SerialAppClass--><g id="link_QMainWindow_SerialAppClass"><path codeLine="79" d="M414,339.08 C414,385.56 414,457.2 414,526.87 " fill="none" id="QMainWindow-backto-SerialAppClass" style="stroke:#455A64;stroke-width:1.0;"/><polygon fill="none" points="414,321.08,408,339.08,420,339.08,414,321.08" style="stroke:#455A64;stroke-width:1.0;"/></g><!--reverse link SerialProcess to QSerialPort--><g id="link_SerialProcess_QSerialPort"><path codeLine="81" d="M680.0663,415.1702 C708.6963,464.9102 735.3,511.11 760.14,554.27 " fill="none" id="SerialProcess-backto-QSerialPort" style="stroke:#455A64;stroke-width:1.0;"/><polygon fill="#455A64" points="674.08,404.77,673.6064,411.9655,680.0663,415.1702,680.5399,407.9747,674.08,404.77" style="stroke:#455A64;stroke-width:1.0;"/></g><!--reverse link SerialAppClass to SerialProcess--><g id="link_SerialAppClass_SerialProcess"><path codeLine="82" d="M528.1473,517.6249 C535.9973,507.9849 535.71,507.25 542,497 C551.66,481.24 560.04,463.93 567.28,446.24 " fill="none" id="SerialAppClass-backto-SerialProcess" style="stroke:#455A64;stroke-width:1.0;"/><polygon fill="#455A64" points="520.57,526.93,527.4603,524.8032,528.1473,517.6249,521.2569,519.7517,520.57,526.93" style="stroke:#455A64;stroke-width:1.0;"/></g><!--link SerialProcess to SerialAppClass--><g id="link_SerialProcess_SerialAppClass"><path codeLine="87" d="M541.84,388.2 C523.75,416.19 504.58,446.97 488,476 C478.76,492.17 472.1907,504.3025 463.4307,521.3625 " fill="none" id="SerialProcess-to-SerialAppClass" style="stroke:#FF6B6B;stroke-width:1.0;"/><polygon fill="#FF6B6B" points="460.69,526.7,468.3594,520.5209,462.9739,522.2521,461.2427,516.8667,460.69,526.7" style="stroke:#FF6B6B;stroke-width:1.0;"/><text fill="#000000" font-family="sans-serif" font-size="14" lengthAdjust="spacing" textLength="44" x="489" y="493.0439">&#171;&#20449;&#21495;&#187;</text></g><!--reverse link SerialAppClass to Ui_Serial_MainWindow--><g id="link_SerialAppClass_Ui_Serial_MainWindow"><path codeLine="83" d="M362.5484,732.9336 C349.2684,760.6736 340.53,778.91 329.27,802.4 " fill="none" id="SerialAppClass-backto-Ui_Serial_MainWindow" style="stroke:#455A64;stroke-width:1.0;"/><polygon fill="#455A64" points="367.73,722.11,361.5313,725.7946,362.5484,732.9336,368.7471,729.249,367.73,722.11" style="stroke:#455A64;stroke-width:1.0;"/></g><!--reverse link SerialAppClass to JSONConfigManager--><g id="link_SerialAppClass_JSONConfigManager"><path codeLine="84" d="M274.5405,723.4676 C239.2205,748.2776 211.64,767.65 179.37,790.32 " fill="none" id="SerialAppClass-backto-JSONConfigManager" style="stroke:#455A64;stroke-width:1.0;"/><polygon fill="#455A64" points="284.36,716.57,277.151,716.7456,274.5405,723.4676,281.7494,723.292,284.36,716.57" style="stroke:#455A64;stroke-width:1.0;"/></g><!--reverse link SerialAppClass to WindowManagerClass--><g id="link_SerialAppClass_WindowManagerClass"><path codeLine="85" d="M465.9237,732.9134 C480.8937,763.8734 491.43,785.69 503.36,810.37 " fill="none" id="SerialAppClass-backto-WindowManagerClass" style="stroke:#455A64;stroke-width:1.0;"/><polygon fill="none" points="460.7,722.11,459.7107,729.2529,465.9237,732.9134,466.913,725.7704,460.7,722.11" style="stroke:#455A64;stroke-width:1.0;"/></g><!--link SerialAppClass to GMN21--><g id="link_SerialAppClass_GMN21"><path d="M543.52,714.63 C572.93,736.19 603.56,759.75 631,783 C647.55,797.03 664.94,814.18 678.13,827.75 " fill="none" id="SerialAppClass-GMN21" style="stroke:#455A64;stroke-width:1.0;stroke-dasharray:7.0,7.0;"/></g><!--SRC=[VLLRJnD157xVNp611owcbLi9D4sJKjc82RSWCSQOpNHtMaQMdMPsIbKqgOYA2LT3YT74IyHWV20YYMARm9zXM_eldDtPBRlRQfzsldFcE-Tyvvnf5wWVbQoD_VhhzVfnrNf_1YAWKLgrTjPdPcvRn-NwGKNg0jRszzhRC_vT-tHgdJ-tFTziM2zE6dj7jVq_jPEo99cBsCX32fU0gaFJJ356SQR0q8HAZ3dy684-dukv03LIn4OEPA5k8fzb3AgBEKeAXfOcEg6Wk82PtwwXB2peJ2O6SrZxXyAHmOe4-2z4b4ZCF9fbiMGIT8wFoB7nKU54g8Pes64edP9ZVUrPnXyoH0sestwoB0-EzxKI1Nr6H_hQSl541kK1-KRuFkWSw1yTbWSTF4KfARhmK2oM6XvoOBlyARY4GCSaLYanIPQ1k_0cmXtIKudtooa5M1yhl5EIK6LsElC0gGmqw_JmIOYDEzZW_MYrpI6AeJv3gE-Ug-yraaT6Tu_uLdLY8kzGfBnbte4YgALqdH-Tn9hpuqPm0r2YecRd8gO3nltXXG6RYXqr3ZA4w0AYI4Lu6IagrvN50JQOns5eOJ0QlJZ_R6t_ZaP5RXfaK749D07bUImdHW1modC1n3j25QAg1KfTB1hrhuB7RhCezlNk7b_2GYeN5uYJgfrBqD5MpeLjxVnwfVBvj6_K8mKS1_DO4KRbgg72oXSmYtFA4ZHW3j4uk3KtFPLsi4a1-LLNyg8NyM1ht3f5-u9rCfBBwKZnhliA8uOIaBXDmGA01KOK4oxRB8pnPy7qrzoIhrUsA2mEDAoo_oJe44DTzvCx1frmXGiyyHQBSqNG-pDffx6t3jREMlrmStwYjdLuKVtbfHDC1B52VXxx6GM7MvVeQU3zM769ec9z-9pLJwfISvUVH2AXFWNM-ShiJOma1JUkbtluromqNxqj_6qSsavU6x_MkGiv4UxKAaWuvSWz_gWEZmsFtOyam_iGv-g97UTlc6GGXlX2CKQM0Ccs37GYaxmu_MbjVx4gPUjurJfOg- -yJ5pF9BcjKNftUVvAK5dRkutIirhvHstpIEAZ2spUVx0tTNRehSfUVU_RnMcrKQfUdkswt9Vd7sfRN-Sd-5-eY7z5-XS0]--></g></svg>